G04*
G04 #@! TF.GenerationSoftware,Altium Limited,Altium Designer,22.2.1 (43)*
G04*
G04 Layer_Physical_Order=1*
G04 Layer_Color=255*
%FSLAX25Y25*%
%MOIN*%
G70*
G04*
G04 #@! TF.SameCoordinates,7FF29AC8-F327-4267-8616-DCF866A2A884*
G04*
G04*
G04 #@! TF.FilePolarity,Positive*
G04*
G01*
G75*
%ADD10C,0.01000*%
%ADD21R,0.04724X0.04724*%
%ADD22R,0.03347X0.03740*%
%ADD23R,0.03740X0.03347*%
%ADD24R,0.03150X0.01968*%
%ADD25R,0.01968X0.03150*%
%ADD26R,0.03543X0.03937*%
%ADD27R,0.30000X0.20000*%
%ADD28R,0.03937X0.07874*%
%ADD29R,0.02756X0.02756*%
%ADD30R,0.06496X0.04724*%
%ADD31R,0.03937X0.03543*%
%ADD32R,0.09843X0.06693*%
%ADD33O,0.06299X0.02362*%
%ADD34R,0.11811X0.13780*%
%ADD35R,0.04724X0.06496*%
%ADD36R,0.03937X0.02362*%
%ADD37R,0.09705X0.04134*%
%ADD38R,0.09705X0.13937*%
%ADD39R,0.02756X0.04921*%
%ADD40R,0.02677X0.01102*%
%ADD41R,0.05315X0.07874*%
%ADD74C,0.02000*%
%ADD75C,0.05000*%
%ADD76C,0.01200*%
%ADD77C,0.01500*%
%ADD78C,0.03000*%
%ADD79C,0.02500*%
%ADD80C,0.04000*%
%ADD81C,0.06299*%
%ADD82R,0.06693X0.06693*%
%ADD83C,0.06693*%
%ADD84R,0.02441X0.02441*%
%ADD85O,0.07874X0.03543*%
%ADD86C,0.09449*%
%ADD87C,0.09843*%
%ADD88R,0.07087X0.07087*%
%ADD89C,0.07087*%
%ADD90C,0.05512*%
%ADD91R,0.05906X0.05512*%
%ADD92R,0.06693X0.06693*%
%ADD93C,0.02362*%
G36*
X143500Y316887D02*
Y310500D01*
X137000D01*
X134000Y307500D01*
Y306000D01*
X122500D01*
Y317000D01*
X134728D01*
X135166Y316819D01*
X135834D01*
X136272Y317000D01*
X137200D01*
Y316819D01*
X142138D01*
Y317000D01*
X143228D01*
X143500Y316887D01*
D02*
G37*
G36*
X234000Y250303D02*
X214541D01*
Y267500D01*
X214383Y267883D01*
X214000Y268041D01*
X213496D01*
Y268626D01*
X214059Y269189D01*
X222806D01*
X223587Y269344D01*
X224248Y269786D01*
X226006Y271544D01*
X226448Y272205D01*
X226603Y272986D01*
Y274957D01*
X230043D01*
Y283043D01*
X221957D01*
Y274957D01*
X222525D01*
Y273830D01*
X221962Y273268D01*
X213214D01*
X212434Y273112D01*
X211914Y272765D01*
X211596Y273154D01*
X213954Y275512D01*
X214439Y275232D01*
X215468Y274957D01*
X216532D01*
X217561Y275232D01*
X218483Y275765D01*
X219235Y276517D01*
X219768Y277439D01*
X220043Y278468D01*
Y279532D01*
X219768Y280561D01*
X219235Y281483D01*
X218483Y282235D01*
X217561Y282768D01*
X217020Y282913D01*
Y287559D01*
X216942Y287949D01*
X216721Y288280D01*
X215482Y289518D01*
X215674Y289980D01*
X219071D01*
Y288531D01*
X223614D01*
Y293468D01*
X219071D01*
Y292020D01*
X214732D01*
Y293370D01*
X210386D01*
Y288630D01*
X213487D01*
X214980Y287137D01*
Y282913D01*
X214439Y282768D01*
X213517Y282235D01*
X212765Y281483D01*
X212232Y280561D01*
X211957Y279532D01*
Y278468D01*
X212232Y277439D01*
X212512Y276954D01*
X206046Y270488D01*
X203929D01*
X203831Y270468D01*
X200386D01*
Y265531D01*
X201480D01*
Y262732D01*
X200130D01*
Y259631D01*
X197779Y257280D01*
X197558Y256949D01*
X197480Y256559D01*
Y252000D01*
X197558Y251610D01*
X197779Y251279D01*
X200600Y248458D01*
X200409Y247996D01*
X199705D01*
Y239122D01*
X204459D01*
Y239000D01*
X204617Y238617D01*
X205000Y238459D01*
X205053D01*
Y236182D01*
X203896Y235026D01*
X157253D01*
X151986Y240293D01*
X151359Y240774D01*
X150847Y240986D01*
Y242846D01*
X143154D01*
Y242026D01*
X138000D01*
X138000Y242026D01*
X137217Y241923D01*
X136487Y241620D01*
X135860Y241140D01*
X135860Y241140D01*
X130738Y236017D01*
X130276Y236208D01*
Y305459D01*
X134000D01*
X134383Y305617D01*
X134541Y306000D01*
Y307276D01*
X137224Y309959D01*
X143500D01*
X143883Y310117D01*
X144041Y310500D01*
Y316887D01*
X144000Y316987D01*
Y317095D01*
X143924Y317171D01*
X143883Y317270D01*
X143783Y317311D01*
X143707Y317388D01*
X143436Y317500D01*
X143328D01*
X143228Y317541D01*
X142138D01*
X141755Y317383D01*
X141745Y317360D01*
X137593D01*
X137583Y317383D01*
X137200Y317541D01*
X136272D01*
X136172Y317500D01*
X136065D01*
X135727Y317360D01*
X135273D01*
X134935Y317500D01*
X134828D01*
X134728Y317541D01*
X122500D01*
X122117Y317383D01*
X121959Y317000D01*
Y306000D01*
X122117Y305617D01*
X122500Y305459D01*
X124224D01*
Y228250D01*
Y198000D01*
Y147541D01*
X121000D01*
X120617Y147383D01*
X120459Y147000D01*
Y137500D01*
X120617Y137117D01*
X121000Y136959D01*
X141500D01*
X141883Y137117D01*
X142041Y137500D01*
Y142971D01*
X148366D01*
X158419Y132919D01*
X158915Y132587D01*
X159500Y132471D01*
X164799D01*
X165166Y132319D01*
X165834D01*
X166452Y132575D01*
X166925Y133048D01*
X167181Y133666D01*
Y134334D01*
X166925Y134952D01*
X166452Y135425D01*
X165834Y135681D01*
X165166D01*
X164799Y135529D01*
X160134D01*
X150081Y145581D01*
X149585Y145913D01*
X149000Y146029D01*
X142041D01*
Y147000D01*
X141883Y147383D01*
X141500Y147541D01*
X130276D01*
Y197099D01*
X145630D01*
Y195945D01*
X150370D01*
Y200291D01*
X145630D01*
Y199138D01*
X130276D01*
Y226997D01*
X139253Y235974D01*
X143154D01*
Y235154D01*
X147650D01*
X147846Y235128D01*
X148593D01*
X153860Y229860D01*
X153860Y229860D01*
X154487Y229380D01*
X155217Y229077D01*
X156000Y228974D01*
X205150D01*
X205933Y229077D01*
X206663Y229380D01*
X207289Y229860D01*
X210218Y232789D01*
X210218Y232789D01*
X210699Y233416D01*
X211197Y233312D01*
Y170000D01*
X211258Y169693D01*
X211432Y169432D01*
X211693Y169258D01*
X212000Y169197D01*
X234000D01*
Y2000D01*
X1000D01*
Y392000D01*
X234000D01*
Y250303D01*
D02*
G37*
G36*
X214000D02*
X212000D01*
X211693Y250242D01*
X211432Y250068D01*
X211258Y249807D01*
X211197Y249500D01*
Y239197D01*
X211000Y239000D01*
X205000D01*
Y250000D01*
X203000D01*
X199815Y253185D01*
Y256432D01*
X201257Y257874D01*
X205874D01*
X207000Y259000D01*
Y267500D01*
X214000D01*
Y250303D01*
D02*
G37*
G36*
X141500Y137500D02*
X121000D01*
Y147000D01*
X141500D01*
Y137500D01*
D02*
G37*
%LPC*%
G36*
X224991Y387795D02*
X223828D01*
X222687Y387568D01*
X221612Y387123D01*
X220645Y386477D01*
X219822Y385654D01*
X219176Y384687D01*
X218731Y383612D01*
X218504Y382471D01*
Y381308D01*
X218731Y380167D01*
X219176Y379093D01*
X219822Y378125D01*
X220645Y377303D01*
X221612Y376656D01*
X222687Y376211D01*
X223828Y375984D01*
X224991D01*
X226132Y376211D01*
X227207Y376656D01*
X228174Y377303D01*
X228997Y378125D01*
X229643Y379093D01*
X230088Y380167D01*
X230315Y381308D01*
Y382471D01*
X230088Y383612D01*
X229643Y384687D01*
X228997Y385654D01*
X228174Y386477D01*
X227207Y387123D01*
X226132Y387568D01*
X224991Y387795D01*
D02*
G37*
G36*
X12393D02*
X11229D01*
X10088Y387568D01*
X9014Y387123D01*
X8046Y386477D01*
X7224Y385654D01*
X6578Y384687D01*
X6132Y383612D01*
X5906Y382471D01*
Y381308D01*
X6132Y380167D01*
X6578Y379093D01*
X7224Y378125D01*
X8046Y377303D01*
X9014Y376656D01*
X10088Y376211D01*
X11229Y375984D01*
X12393D01*
X13534Y376211D01*
X14608Y376656D01*
X15576Y377303D01*
X16398Y378125D01*
X17044Y379093D01*
X17490Y380167D01*
X17717Y381308D01*
Y382471D01*
X17490Y383612D01*
X17044Y384687D01*
X16398Y385654D01*
X15576Y386477D01*
X14608Y387123D01*
X13534Y387568D01*
X12393Y387795D01*
D02*
G37*
G36*
X77248Y340461D02*
X75744D01*
X74292Y340072D01*
X72991Y339320D01*
X71928Y338257D01*
X71176Y336955D01*
X70787Y335504D01*
Y334000D01*
X71176Y332548D01*
X71928Y331247D01*
X72991Y330184D01*
X74292Y329432D01*
X75744Y329043D01*
X77248D01*
X78699Y329432D01*
X80001Y330184D01*
X81064Y331247D01*
X81816Y332548D01*
X82205Y334000D01*
Y335504D01*
X81816Y336955D01*
X81064Y338257D01*
X80001Y339320D01*
X78699Y340072D01*
X77248Y340461D01*
D02*
G37*
G36*
X148506Y371847D02*
X147494D01*
X146515Y371584D01*
X145638Y371078D01*
X144922Y370362D01*
X144416Y369485D01*
X144153Y368506D01*
Y367494D01*
X144416Y366515D01*
X144922Y365638D01*
X145638Y364922D01*
X146515Y364416D01*
X146980Y364291D01*
Y356000D01*
X147058Y355610D01*
X147279Y355279D01*
X150279Y352279D01*
X150610Y352058D01*
X151000Y351980D01*
X170078D01*
X204480Y317578D01*
Y316246D01*
X203980Y316197D01*
X203942Y316390D01*
X203721Y316721D01*
X170721Y349721D01*
X170390Y349942D01*
X170000Y350020D01*
X143922D01*
X139020Y354922D01*
Y364291D01*
X139485Y364416D01*
X140362Y364922D01*
X141078Y365638D01*
X141584Y366515D01*
X141847Y367494D01*
Y368506D01*
X141584Y369485D01*
X141078Y370362D01*
X140362Y371078D01*
X139485Y371584D01*
X138506Y371847D01*
X137494D01*
X136515Y371584D01*
X135638Y371078D01*
X134922Y370362D01*
X134416Y369485D01*
X134153Y368506D01*
Y367494D01*
X134416Y366515D01*
X134922Y365638D01*
X135638Y364922D01*
X136515Y364416D01*
X136980Y364291D01*
Y354500D01*
X137058Y354110D01*
X137279Y353779D01*
X142779Y348279D01*
X143110Y348058D01*
X143500Y347980D01*
X169578D01*
X201980Y315578D01*
Y302922D01*
X195279Y296221D01*
X195058Y295890D01*
X194980Y295500D01*
Y282913D01*
X194439Y282768D01*
X193517Y282235D01*
X192765Y281483D01*
X192232Y280561D01*
X191957Y279532D01*
Y278468D01*
X192232Y277439D01*
X192512Y276954D01*
X189641Y274083D01*
X189420Y273752D01*
X189343Y273362D01*
Y247996D01*
X187894D01*
Y239122D01*
X192831D01*
Y246869D01*
X193293Y247061D01*
X193799Y246554D01*
Y239122D01*
X198736D01*
Y247996D01*
X195241D01*
X194020Y249218D01*
Y271078D01*
X194922Y271980D01*
X198500D01*
X198890Y272058D01*
X199221Y272279D01*
X203112Y276170D01*
X203517Y275765D01*
X204439Y275232D01*
X205468Y274957D01*
X206532D01*
X207561Y275232D01*
X208483Y275765D01*
X209235Y276517D01*
X209768Y277439D01*
X210043Y278468D01*
Y279532D01*
X209768Y280561D01*
X209235Y281483D01*
X208483Y282235D01*
X207561Y282768D01*
X206532Y283043D01*
X205468D01*
X204439Y282768D01*
X203954Y282488D01*
X201020Y285422D01*
Y295290D01*
X205963Y300233D01*
X206423Y299987D01*
X206421Y299977D01*
Y293370D01*
X205268D01*
Y288630D01*
X209614D01*
Y293370D01*
X208460D01*
Y299543D01*
X208519D01*
X208617Y299562D01*
X213833D01*
Y308436D01*
X207519D01*
Y301426D01*
X207306Y301283D01*
X206978Y300956D01*
X206518Y301202D01*
X206520Y301213D01*
Y318000D01*
X206442Y318390D01*
X206221Y318721D01*
X171221Y353721D01*
X170890Y353942D01*
X170500Y354020D01*
X151422D01*
X149020Y356422D01*
Y364291D01*
X149485Y364416D01*
X150362Y364922D01*
X151078Y365638D01*
X151584Y366515D01*
X151847Y367494D01*
Y368506D01*
X151584Y369485D01*
X151078Y370362D01*
X150362Y371078D01*
X149485Y371584D01*
X148506Y371847D01*
D02*
G37*
G36*
X218957Y343468D02*
X214413D01*
Y340170D01*
X209955Y335712D01*
X209734Y335381D01*
X209656Y334991D01*
Y329436D01*
X207519D01*
Y320562D01*
X209480D01*
Y316858D01*
X209075Y316452D01*
X208819Y315834D01*
Y315166D01*
X209075Y314548D01*
X209548Y314075D01*
X210166Y313819D01*
X210834D01*
X211452Y314075D01*
X211925Y314548D01*
X212181Y315166D01*
Y315834D01*
X211925Y316452D01*
X211520Y316858D01*
Y320562D01*
X213833D01*
Y329436D01*
X211696D01*
Y334569D01*
X215658Y338531D01*
X218957D01*
Y343468D01*
D02*
G37*
G36*
X150800Y316441D02*
X145863D01*
Y313079D01*
X147311D01*
Y310689D01*
X147075Y310452D01*
X146819Y309834D01*
Y309166D01*
X147075Y308548D01*
X147548Y308075D01*
X148166Y307819D01*
X148834D01*
X149452Y308075D01*
X149925Y308548D01*
X150181Y309166D01*
Y309834D01*
X149925Y310452D01*
X149452Y310925D01*
X149351Y310967D01*
Y313079D01*
X150800D01*
Y316441D01*
D02*
G37*
G36*
X131846Y371847D02*
X124153D01*
Y364154D01*
X124974D01*
Y331541D01*
X122500D01*
X122117Y331383D01*
X121959Y331000D01*
Y320000D01*
X122117Y319617D01*
X122500Y319459D01*
X134728D01*
X134828Y319500D01*
X134935D01*
X135273Y319640D01*
X135727D01*
X136065Y319500D01*
X136172D01*
X136272Y319459D01*
X137200D01*
X137583Y319617D01*
X137593Y319640D01*
X141745D01*
X141755Y319617D01*
X142138Y319459D01*
X143228D01*
X143328Y319500D01*
X143436D01*
X143773Y319640D01*
X144227D01*
X144564Y319500D01*
X144672D01*
X144772Y319459D01*
X148950D01*
X159990Y308419D01*
X160486Y308087D01*
X161071Y307971D01*
X162654D01*
Y305654D01*
X170346D01*
Y310428D01*
X170373Y310434D01*
X170869Y310765D01*
X177734Y317630D01*
X180114D01*
Y322370D01*
X175768D01*
Y319990D01*
X169154Y313376D01*
X168846D01*
X168699Y313347D01*
X162654D01*
Y311029D01*
X161705D01*
X152041Y320693D01*
Y331000D01*
X151883Y331383D01*
X151500Y331541D01*
X131026D01*
Y364154D01*
X131846D01*
Y371847D01*
D02*
G37*
G36*
X185232Y322370D02*
X180886D01*
Y317630D01*
X182039D01*
Y312941D01*
X182117Y312551D01*
X182338Y312220D01*
X183156Y311402D01*
X182916Y310985D01*
X182653Y310006D01*
Y308994D01*
X182916Y308015D01*
X183422Y307138D01*
X184138Y306422D01*
X184980Y305936D01*
Y282913D01*
X184439Y282768D01*
X183517Y282235D01*
X182765Y281483D01*
X182232Y280561D01*
X181957Y279532D01*
Y278468D01*
X182232Y277439D01*
X182765Y276517D01*
X183443Y275839D01*
X183437Y275810D01*
Y247996D01*
X181988D01*
Y239122D01*
X186925D01*
Y247996D01*
X185476D01*
Y274957D01*
X186532D01*
X187561Y275232D01*
X188483Y275765D01*
X189235Y276517D01*
X189768Y277439D01*
X190043Y278468D01*
Y279532D01*
X189768Y280561D01*
X189235Y281483D01*
X188483Y282235D01*
X187561Y282768D01*
X187020Y282913D01*
Y305657D01*
X187985Y305916D01*
X188862Y306422D01*
X189578Y307138D01*
X190084Y308015D01*
X190347Y308994D01*
Y310006D01*
X190084Y310985D01*
X189578Y311862D01*
X188862Y312578D01*
X187985Y313084D01*
X187006Y313347D01*
X185994D01*
X185015Y313084D01*
X184598Y312844D01*
X184079Y313363D01*
Y317630D01*
X185232D01*
Y322370D01*
D02*
G37*
G36*
X177006Y313347D02*
X175994D01*
X175015Y313084D01*
X174138Y312578D01*
X173422Y311862D01*
X172916Y310985D01*
X172653Y310006D01*
Y308994D01*
X172916Y308015D01*
X173422Y307138D01*
X174138Y306422D01*
X174980Y305936D01*
Y282913D01*
X174439Y282768D01*
X173517Y282235D01*
X172765Y281483D01*
X172232Y280561D01*
X171957Y279532D01*
Y278468D01*
X172232Y277439D01*
X172765Y276517D01*
X173517Y275765D01*
X174439Y275232D01*
X175468Y274957D01*
X176532D01*
X177098Y275108D01*
X177532Y274751D01*
Y247996D01*
X176083D01*
Y239122D01*
X181020D01*
Y247996D01*
X179571D01*
Y275371D01*
X179493Y275761D01*
X179272Y276092D01*
X179041Y276323D01*
X179235Y276517D01*
X179768Y277439D01*
X180043Y278468D01*
Y279532D01*
X179768Y280561D01*
X179235Y281483D01*
X178483Y282235D01*
X177561Y282768D01*
X177020Y282913D01*
Y305657D01*
X177985Y305916D01*
X178862Y306422D01*
X179578Y307138D01*
X180084Y308015D01*
X180347Y308994D01*
Y310006D01*
X180084Y310985D01*
X179578Y311862D01*
X178862Y312578D01*
X177985Y313084D01*
X177006Y313347D01*
D02*
G37*
G36*
X166532Y283043D02*
X165468D01*
X164439Y282768D01*
X163517Y282235D01*
X162765Y281483D01*
X162232Y280561D01*
X161957Y279532D01*
Y278468D01*
X162232Y277439D01*
X162765Y276517D01*
X163517Y275765D01*
X164439Y275232D01*
X165468Y274957D01*
X166532D01*
X167561Y275232D01*
X168046Y275512D01*
X171626Y271932D01*
Y247996D01*
X170177D01*
Y239122D01*
X175114D01*
Y247996D01*
X173665D01*
Y272354D01*
X173588Y272745D01*
X173367Y273075D01*
X169488Y276954D01*
X169768Y277439D01*
X170043Y278468D01*
Y279532D01*
X169768Y280561D01*
X169235Y281483D01*
X168483Y282235D01*
X167561Y282768D01*
X166532Y283043D01*
D02*
G37*
G36*
X156834Y289181D02*
X156166D01*
X155548Y288925D01*
X155075Y288452D01*
X154819Y287834D01*
Y287166D01*
X155075Y286548D01*
X155480Y286142D01*
Y283043D01*
X155468D01*
X154439Y282768D01*
X153517Y282235D01*
X152765Y281483D01*
X152232Y280561D01*
X151957Y279532D01*
Y278468D01*
X152232Y277439D01*
X152765Y276517D01*
X153517Y275765D01*
X154439Y275232D01*
X155468Y274957D01*
X156532D01*
X157561Y275232D01*
X158046Y275512D01*
X165720Y267838D01*
Y247996D01*
X164272D01*
Y239122D01*
X169209D01*
Y247996D01*
X167760D01*
Y268260D01*
X167682Y268650D01*
X167461Y268981D01*
X159488Y276954D01*
X159768Y277439D01*
X160043Y278468D01*
Y279532D01*
X159768Y280561D01*
X159235Y281483D01*
X158483Y282235D01*
X157561Y282768D01*
X157520Y282779D01*
Y286142D01*
X157925Y286548D01*
X158181Y287166D01*
Y287834D01*
X157925Y288452D01*
X157452Y288925D01*
X156834Y289181D01*
D02*
G37*
G36*
X150370Y195173D02*
X145630D01*
Y190827D01*
X146980D01*
Y186996D01*
X145138D01*
Y181272D01*
X150862D01*
Y186996D01*
X149020D01*
Y190827D01*
X150370D01*
Y195173D01*
D02*
G37*
G36*
X163303Y179098D02*
X158366D01*
Y175681D01*
X155696D01*
X155452Y175925D01*
X154834Y176181D01*
X154166D01*
X153548Y175925D01*
X153304Y175681D01*
X150862D01*
Y178728D01*
X145138D01*
Y173004D01*
X150862D01*
Y173642D01*
X153036D01*
X153075Y173548D01*
X153548Y173075D01*
X154166Y172819D01*
X154834D01*
X155452Y173075D01*
X155925Y173548D01*
X155964Y173642D01*
X158366D01*
Y170224D01*
X163303D01*
Y179098D01*
D02*
G37*
G36*
X147506Y232846D02*
X146494D01*
X145515Y232584D01*
X144638Y232078D01*
X143922Y231362D01*
X143416Y230485D01*
X143154Y229506D01*
Y228494D01*
X143416Y227515D01*
X143922Y226638D01*
X144638Y225922D01*
X145515Y225416D01*
X146494Y225153D01*
X147506D01*
X148485Y225416D01*
X148902Y225656D01*
X168980Y205578D01*
Y183000D01*
X169058Y182610D01*
X169279Y182279D01*
X171626Y179932D01*
Y179098D01*
X170177D01*
Y170224D01*
X175114D01*
Y179098D01*
X173665D01*
Y180354D01*
X173588Y180745D01*
X173367Y181075D01*
X171020Y183422D01*
Y206000D01*
X170942Y206390D01*
X170721Y206721D01*
X150344Y227098D01*
X150584Y227515D01*
X150847Y228494D01*
Y229506D01*
X150584Y230485D01*
X150078Y231362D01*
X149362Y232078D01*
X148485Y232584D01*
X147506Y232846D01*
D02*
G37*
G36*
Y222847D02*
X146494D01*
X145515Y222584D01*
X144638Y222078D01*
X143922Y221362D01*
X143416Y220485D01*
X143154Y219506D01*
Y218494D01*
X143416Y217515D01*
X143922Y216638D01*
X144638Y215922D01*
X145515Y215416D01*
X146494Y215154D01*
X147506D01*
X148485Y215416D01*
X148902Y215656D01*
X165720Y198838D01*
Y179098D01*
X164272D01*
Y170224D01*
X169209D01*
Y179098D01*
X167760D01*
Y199260D01*
X167682Y199650D01*
X167461Y199981D01*
X150344Y217098D01*
X150584Y217515D01*
X150847Y218494D01*
Y219506D01*
X150584Y220485D01*
X150078Y221362D01*
X149362Y222078D01*
X148485Y222584D01*
X147506Y222847D01*
D02*
G37*
G36*
X176532Y164043D02*
X175468D01*
X174439Y163768D01*
X173517Y163235D01*
X172765Y162483D01*
X172232Y161561D01*
X171957Y160532D01*
Y159468D01*
X172232Y158439D01*
X172765Y157517D01*
X173517Y156765D01*
X174439Y156232D01*
X175468Y155957D01*
X176532D01*
X177561Y156232D01*
X178483Y156765D01*
X179235Y157517D01*
X179768Y158439D01*
X180043Y159468D01*
Y160532D01*
X179768Y161561D01*
X179235Y162483D01*
X178483Y163235D01*
X177561Y163768D01*
X176532Y164043D01*
D02*
G37*
G36*
X166532D02*
X165468D01*
X164439Y163768D01*
X163517Y163235D01*
X162765Y162483D01*
X162232Y161561D01*
X161957Y160532D01*
Y159468D01*
X162232Y158439D01*
X162765Y157517D01*
X163517Y156765D01*
X164439Y156232D01*
X165468Y155957D01*
X166532D01*
X167561Y156232D01*
X168483Y156765D01*
X169235Y157517D01*
X169768Y158439D01*
X170043Y159468D01*
Y160532D01*
X169768Y161561D01*
X169235Y162483D01*
X168483Y163235D01*
X167561Y163768D01*
X166532Y164043D01*
D02*
G37*
G36*
X192831Y179098D02*
X187894D01*
Y170224D01*
X189343D01*
Y169284D01*
X189239Y169181D01*
X188666D01*
X188048Y168925D01*
X187575Y168452D01*
X187319Y167834D01*
Y167261D01*
X185279Y165221D01*
X185058Y164890D01*
X184980Y164500D01*
Y163913D01*
X184439Y163768D01*
X183517Y163235D01*
X182765Y162483D01*
X182232Y161561D01*
X181957Y160532D01*
Y159468D01*
X182232Y158439D01*
X182765Y157517D01*
X183517Y156765D01*
X184439Y156232D01*
X184980Y156087D01*
Y150732D01*
X182630D01*
Y146386D01*
X187370D01*
Y150732D01*
X187020D01*
Y156087D01*
X187561Y156232D01*
X188483Y156765D01*
X189235Y157517D01*
X189768Y158439D01*
X190043Y159468D01*
Y160532D01*
X189768Y161561D01*
X189235Y162483D01*
X188483Y163235D01*
X187561Y163768D01*
X187447Y163798D01*
X187298Y164356D01*
X188761Y165819D01*
X189334D01*
X189952Y166075D01*
X190425Y166548D01*
X190681Y167166D01*
Y167739D01*
X191083Y168141D01*
X191304Y168472D01*
X191382Y168862D01*
Y170224D01*
X192831D01*
Y179098D01*
D02*
G37*
G36*
X198736D02*
X193799D01*
Y170224D01*
X194980D01*
Y163913D01*
X194439Y163768D01*
X193517Y163235D01*
X192765Y162483D01*
X192232Y161561D01*
X191957Y160532D01*
Y159468D01*
X192232Y158439D01*
X192765Y157517D01*
X193517Y156765D01*
X194439Y156232D01*
X194980Y156087D01*
Y150291D01*
X193630D01*
Y145945D01*
X198370D01*
Y150291D01*
X197020D01*
Y156087D01*
X197561Y156232D01*
X198483Y156765D01*
X199235Y157517D01*
X199768Y158439D01*
X200043Y159468D01*
Y160532D01*
X199768Y161561D01*
X199235Y162483D01*
X198483Y163235D01*
X197561Y163768D01*
X197020Y163913D01*
Y170224D01*
X198736D01*
Y179098D01*
D02*
G37*
G36*
X213173Y151370D02*
X208827D01*
Y146630D01*
X209352D01*
Y144370D01*
X208709D01*
Y139630D01*
X209352D01*
Y136416D01*
X209319Y136334D01*
Y135666D01*
X209575Y135048D01*
X210048Y134575D01*
X210666Y134319D01*
X211334D01*
X211952Y134575D01*
X212425Y135048D01*
X212681Y135666D01*
Y136334D01*
X212425Y136952D01*
X212411Y136966D01*
Y139630D01*
X213055D01*
Y144370D01*
X212411D01*
Y146630D01*
X213173D01*
Y151370D01*
D02*
G37*
G36*
X210547Y179098D02*
X205610D01*
Y170224D01*
X207059D01*
Y167921D01*
X207137Y167531D01*
X207358Y167200D01*
X212512Y162046D01*
X212232Y161561D01*
X211957Y160532D01*
Y159468D01*
X212232Y158439D01*
X212765Y157517D01*
X213517Y156765D01*
X214439Y156232D01*
X214980Y156087D01*
Y144370D01*
X213827D01*
Y139630D01*
X215980D01*
Y130709D01*
X215515Y130584D01*
X214638Y130078D01*
X213922Y129362D01*
X213416Y128485D01*
X213154Y127506D01*
Y126494D01*
X213416Y125515D01*
X213922Y124638D01*
X214638Y123922D01*
X215515Y123416D01*
X216494Y123153D01*
X217506D01*
X218485Y123416D01*
X219362Y123922D01*
X220078Y124638D01*
X220584Y125515D01*
X220847Y126494D01*
Y127506D01*
X220584Y128485D01*
X220078Y129362D01*
X219362Y130078D01*
X218485Y130584D01*
X218020Y130709D01*
Y139630D01*
X218173D01*
Y144370D01*
X217020D01*
Y156087D01*
X217561Y156232D01*
X218483Y156765D01*
X219235Y157517D01*
X219768Y158439D01*
X220043Y159468D01*
Y160532D01*
X219768Y161561D01*
X219235Y162483D01*
X218483Y163235D01*
X217561Y163768D01*
X216532Y164043D01*
X215468D01*
X214439Y163768D01*
X213954Y163488D01*
X209098Y168344D01*
Y170224D01*
X210547D01*
Y179098D01*
D02*
G37*
G36*
X204642D02*
X199705D01*
Y170224D01*
X201154D01*
Y167827D01*
X201231Y167437D01*
X201452Y167106D01*
X204309Y164250D01*
X204329Y164172D01*
X204240Y163653D01*
X203517Y163235D01*
X202765Y162483D01*
X202232Y161561D01*
X201957Y160532D01*
Y159468D01*
X202232Y158439D01*
X202765Y157517D01*
X203517Y156765D01*
X204439Y156232D01*
X204980Y156087D01*
Y151370D01*
X203709D01*
Y146630D01*
X204862D01*
Y130207D01*
X204638Y130078D01*
X203922Y129362D01*
X203416Y128485D01*
X203153Y127506D01*
Y126494D01*
X203416Y125515D01*
X203922Y124638D01*
X204638Y123922D01*
X205515Y123416D01*
X206494Y123153D01*
X207506D01*
X208485Y123416D01*
X209362Y123922D01*
X210078Y124638D01*
X210584Y125515D01*
X210846Y126494D01*
Y127506D01*
X210584Y128485D01*
X210078Y129362D01*
X209362Y130078D01*
X208485Y130584D01*
X207506Y130847D01*
X206902D01*
Y146630D01*
X208055D01*
Y151370D01*
X207020D01*
Y156087D01*
X207561Y156232D01*
X208483Y156765D01*
X209235Y157517D01*
X209768Y158439D01*
X210043Y159468D01*
Y160532D01*
X209768Y161561D01*
X209235Y162483D01*
X208483Y163235D01*
X207561Y163768D01*
X206562Y164035D01*
Y164457D01*
X206485Y164848D01*
X206263Y165179D01*
X203193Y168249D01*
Y170224D01*
X204642D01*
Y179098D01*
D02*
G37*
G36*
X198370Y145173D02*
X193630D01*
Y140827D01*
X194471D01*
Y136701D01*
X194319Y136334D01*
Y135666D01*
X194471Y135299D01*
Y130847D01*
X193154D01*
Y123153D01*
X200847D01*
Y130847D01*
X197529D01*
Y135299D01*
X197681Y135666D01*
Y136334D01*
X197529Y136701D01*
Y140827D01*
X198370D01*
Y145173D01*
D02*
G37*
G36*
X214724Y101159D02*
X210393D01*
X209507Y100982D01*
X208755Y100480D01*
X208253Y99729D01*
X208077Y98843D01*
X208253Y97956D01*
X208755Y97205D01*
X209507Y96703D01*
X210393Y96526D01*
X214724D01*
X215610Y96703D01*
X216362Y97205D01*
X216864Y97956D01*
X217040Y98843D01*
X216864Y99729D01*
X216362Y100480D01*
X215610Y100982D01*
X214724Y101159D01*
D02*
G37*
G36*
X60500Y366800D02*
X29500D01*
Y345800D01*
X41974D01*
Y51026D01*
X23453D01*
Y51256D01*
X16547D01*
Y44744D01*
X23453D01*
Y44974D01*
X114959D01*
Y44122D01*
X108919Y38081D01*
X108587Y37585D01*
X108471Y37000D01*
Y14634D01*
X100807Y6970D01*
X94528D01*
X94500Y7459D01*
X94883Y7617D01*
X95041Y8000D01*
Y18000D01*
X94965Y18185D01*
X95111Y18298D01*
X95301Y18425D01*
X95329Y18468D01*
X95337Y18474D01*
X95383Y18493D01*
X95443Y18639D01*
X95531Y18770D01*
X95520Y18824D01*
X95541Y18875D01*
Y39000D01*
X95383Y39383D01*
X95000Y39541D01*
X76000D01*
X76000Y39541D01*
X75617Y39383D01*
X75617Y39383D01*
X75302Y39068D01*
X75144Y38685D01*
X75144Y38685D01*
Y27789D01*
X74682Y27597D01*
X69140Y33140D01*
X68513Y33621D01*
X67783Y33923D01*
X67000Y34026D01*
X60500D01*
Y41500D01*
X29500D01*
Y36400D01*
X16308D01*
X15152Y37556D01*
Y46729D01*
X15160Y46743D01*
X15382Y47571D01*
Y48429D01*
X15160Y49257D01*
X14731Y49999D01*
X14125Y50605D01*
X13383Y51034D01*
X12555Y51256D01*
X11697D01*
X10869Y51034D01*
X10127Y50605D01*
X9521Y49999D01*
X9092Y49257D01*
X8870Y48429D01*
Y47571D01*
X9092Y46743D01*
X9100Y46729D01*
Y36303D01*
X9203Y35520D01*
X9505Y34790D01*
X9986Y34163D01*
X12915Y31234D01*
X12915Y31234D01*
X13542Y30753D01*
X14272Y30451D01*
X15055Y30348D01*
X15055Y30348D01*
X29500D01*
Y20500D01*
X60500D01*
Y27974D01*
X65747D01*
X73545Y20175D01*
X74172Y19694D01*
X74902Y19392D01*
X75030Y19171D01*
X74959Y19000D01*
Y14000D01*
X75117Y13617D01*
X81117Y7617D01*
X81500Y7459D01*
X81500Y7459D01*
X88630D01*
Y3268D01*
X93370D01*
Y3912D01*
X101441D01*
X102026Y4028D01*
X102522Y4360D01*
X111081Y12919D01*
X111413Y13415D01*
X111529Y14000D01*
Y36367D01*
X116622Y41459D01*
X118310D01*
X118517Y40959D01*
X114279Y36721D01*
X114058Y36390D01*
X113980Y36000D01*
Y13500D01*
X114058Y13110D01*
X114279Y12779D01*
X115220Y11838D01*
X115551Y11617D01*
X115941Y11540D01*
X129130D01*
Y9886D01*
X133870D01*
Y13535D01*
X134332Y13726D01*
X138779Y9279D01*
X139087Y9073D01*
X139136Y8610D01*
X139138Y8582D01*
X139138Y8543D01*
Y6752D01*
X133870D01*
Y9114D01*
X129130D01*
Y4768D01*
X132575D01*
X132673Y4748D01*
X133278D01*
X133456Y4713D01*
X139138D01*
Y2870D01*
X144862D01*
Y8480D01*
X144862Y8595D01*
X145138Y8980D01*
X150742D01*
X151138Y8728D01*
X151138Y8480D01*
Y3004D01*
X156862D01*
Y4846D01*
X161925D01*
X162315Y4924D01*
X162646Y5145D01*
X163269Y5768D01*
X166370D01*
Y10114D01*
X161630D01*
Y7013D01*
X161503Y6886D01*
X156862D01*
X156862Y8728D01*
X157258Y8980D01*
X157500D01*
X157890Y9058D01*
X158221Y9279D01*
X160981Y12039D01*
X161630D01*
Y10886D01*
X166370D01*
Y15232D01*
X161630D01*
Y14079D01*
X160559D01*
X160169Y14001D01*
X159838Y13780D01*
X157362Y11304D01*
X156862Y11511D01*
Y14833D01*
X162081Y20052D01*
X162413Y20549D01*
X162529Y21134D01*
Y41459D01*
X163959D01*
X164229Y41571D01*
X164500Y41459D01*
X181276D01*
X181959Y40776D01*
Y32500D01*
X182117Y32117D01*
X182500Y31959D01*
X189500D01*
X189771Y32071D01*
X190041Y31959D01*
X209500D01*
X209559Y31983D01*
X209622Y31973D01*
X209744Y32060D01*
X209883Y32117D01*
X209907Y32176D01*
X209959Y32213D01*
X219959Y48213D01*
X219984Y48361D01*
X220041Y48500D01*
Y60630D01*
X224213D01*
Y61980D01*
X227138D01*
Y61004D01*
X232862D01*
Y66728D01*
X227138D01*
Y64020D01*
X224213D01*
Y65370D01*
X220041D01*
Y67000D01*
X219883Y67383D01*
X219500Y67541D01*
X219157D01*
Y74067D01*
X223442Y78351D01*
X223884Y79013D01*
X224039Y79793D01*
Y91000D01*
X223884Y91780D01*
X223442Y92442D01*
X223427Y92592D01*
X223818Y93014D01*
X226996D01*
Y92469D01*
X229965D01*
Y94316D01*
X230010Y94543D01*
X229965Y94770D01*
Y96618D01*
X226996D01*
Y96073D01*
X223483D01*
X223305Y96192D01*
X222622Y96328D01*
X221939Y96192D01*
X221360Y95805D01*
X219278Y93722D01*
X218891Y93143D01*
X218759Y92483D01*
X218600Y92324D01*
X215460D01*
Y93421D01*
X215550Y93640D01*
Y94360D01*
X215460Y94579D01*
Y95720D01*
X214318D01*
X214100Y95811D01*
X213379D01*
X213160Y95720D01*
X211720Y95720D01*
X211519Y95720D01*
X210579D01*
X210360Y95811D01*
X209640D01*
X209421Y95720D01*
X208280D01*
Y95720D01*
X208177D01*
Y95720D01*
X207476D01*
Y98403D01*
X207399Y98794D01*
X207177Y99124D01*
X203522Y102780D01*
Y104157D01*
X203862Y104516D01*
X208012D01*
Y107484D01*
X203862D01*
X203522Y107843D01*
Y108036D01*
X203444Y108426D01*
X203223Y108756D01*
X200274Y111705D01*
X199943Y111926D01*
X199553Y112004D01*
X198251D01*
X159534Y150721D01*
X159203Y150942D01*
X158813Y151020D01*
X143922D01*
X142020Y152922D01*
Y164078D01*
X143647Y165705D01*
X180375D01*
X180765Y165782D01*
X181096Y166003D01*
X182975Y167882D01*
X183196Y168213D01*
X183273Y168603D01*
Y170216D01*
X183282Y170224D01*
X186925D01*
Y179098D01*
X181988D01*
Y171815D01*
X181843Y171669D01*
X181504Y171384D01*
X181165Y171669D01*
X181020Y171815D01*
Y179098D01*
X176083D01*
Y170224D01*
X179726D01*
X179734Y170216D01*
Y169647D01*
X179332Y169244D01*
X142603D01*
X142213Y169166D01*
X141882Y168945D01*
X138779Y165842D01*
X138558Y165512D01*
X138480Y165121D01*
Y151879D01*
X138558Y151488D01*
X138779Y151158D01*
X142158Y147779D01*
X142489Y147558D01*
X142879Y147480D01*
X157769D01*
X196486Y108763D01*
X196817Y108542D01*
X197207Y108465D01*
X198510D01*
X199028Y107946D01*
X198837Y107484D01*
X195492D01*
Y104516D01*
X199642D01*
X199983Y104157D01*
Y101736D01*
X200046Y101417D01*
X200044Y101411D01*
X199859Y101175D01*
X199677Y101019D01*
X198976Y101159D01*
X194645D01*
X193759Y100982D01*
X193007Y100480D01*
X192505Y99729D01*
X192329Y98843D01*
X192505Y97956D01*
X193007Y97205D01*
X193759Y96703D01*
X194645Y96526D01*
X198976D01*
X199862Y96703D01*
X200614Y97205D01*
X200819Y97512D01*
X201319Y97360D01*
Y97166D01*
X201575Y96548D01*
X201902Y96220D01*
X201696Y95720D01*
X201192D01*
Y95720D01*
X201090D01*
Y95720D01*
X199948D01*
X199729Y95811D01*
X199009D01*
X198790Y95720D01*
X197649D01*
Y95720D01*
X197350D01*
Y95720D01*
X196208D01*
X195989Y95811D01*
X195269D01*
X195050Y95720D01*
X193909D01*
Y94579D01*
X193818Y94360D01*
Y93640D01*
X193909Y93421D01*
Y92280D01*
X193415Y92264D01*
X189244D01*
X188854Y92186D01*
X188523Y91965D01*
X186279Y89721D01*
X186058Y89390D01*
X185980Y89000D01*
Y83500D01*
X186058Y83110D01*
X186279Y82779D01*
X193220Y75838D01*
X193551Y75617D01*
X193941Y75539D01*
X196110D01*
Y74386D01*
X200851D01*
Y78732D01*
X196110D01*
Y77579D01*
X194363D01*
X188020Y83922D01*
Y88578D01*
X189666Y90224D01*
X193415D01*
X193909Y90209D01*
Y89067D01*
X193818Y88848D01*
Y88128D01*
X193909Y87909D01*
Y86768D01*
X195050D01*
X195269Y86677D01*
X195989D01*
X196208Y86768D01*
X197350D01*
Y86768D01*
X197649D01*
Y86768D01*
X198790D01*
X199009Y86677D01*
X199729D01*
X199948Y86768D01*
X201090D01*
Y86768D01*
X201192D01*
Y86768D01*
X202334D01*
X202553Y86677D01*
X202656D01*
X202666Y86181D01*
X202048Y85925D01*
X201575Y85452D01*
X201394Y85016D01*
X200863Y84921D01*
X200855Y84922D01*
X200614Y85284D01*
X199862Y85786D01*
X198976Y85962D01*
X194645D01*
X193759Y85786D01*
X193007Y85284D01*
X192505Y84532D01*
X192329Y83646D01*
X192505Y82759D01*
X193007Y82008D01*
X193759Y81506D01*
X194645Y81330D01*
X198976D01*
X199862Y81506D01*
X200614Y82008D01*
X201116Y82759D01*
X201208Y83225D01*
X201748Y83375D01*
X202048Y83075D01*
X202666Y82819D01*
X203334D01*
X203952Y83075D01*
X204425Y83548D01*
X204681Y84166D01*
Y84739D01*
X206457Y86515D01*
X206565Y86677D01*
X206817D01*
X206954Y86603D01*
X207044Y85986D01*
X205759Y84701D01*
X205538Y84371D01*
X205461Y83980D01*
Y78732D01*
X204110D01*
Y74386D01*
X208851D01*
Y78732D01*
X207500D01*
Y83174D01*
X207642Y83269D01*
X208197Y83040D01*
X208253Y82759D01*
X208755Y82008D01*
X209507Y81506D01*
X210393Y81330D01*
X214724D01*
X215610Y81506D01*
X216362Y82008D01*
X216864Y82759D01*
X217040Y83646D01*
X216864Y84532D01*
X216362Y85284D01*
X215610Y85786D01*
X214724Y85962D01*
X210700D01*
X210401Y86406D01*
X210489Y86730D01*
X210579Y86768D01*
X212019Y86768D01*
X212221Y86768D01*
X213160D01*
X213379Y86677D01*
X214100D01*
X214318Y86768D01*
X215460D01*
Y87909D01*
X215550Y88128D01*
Y88848D01*
X215460Y89067D01*
Y89775D01*
X219128D01*
X219461Y89841D01*
X219961Y89547D01*
Y80638D01*
X215676Y76353D01*
X215234Y75692D01*
X215079Y74911D01*
Y67541D01*
X194500D01*
X194117Y67383D01*
X193959Y67000D01*
Y54041D01*
X165054D01*
X164962Y54079D01*
X164863Y54038D01*
X164755D01*
X164586Y53968D01*
X164541Y54013D01*
X164500Y54112D01*
X159729Y58883D01*
X159347Y59041D01*
X159347Y59041D01*
X143000D01*
X142617Y58883D01*
X142459Y58500D01*
Y43000D01*
X142617Y42617D01*
X143000Y42459D01*
X143848D01*
X144000Y41959D01*
X143631Y41712D01*
X143259Y41156D01*
X143129Y40500D01*
X143259Y39844D01*
X143631Y39288D01*
X144187Y38916D01*
X144843Y38786D01*
X148779D01*
X149435Y38916D01*
X149992Y39288D01*
X150363Y39844D01*
X150494Y40500D01*
X150363Y41156D01*
X149992Y41712D01*
X149622Y41959D01*
X149774Y42459D01*
X153276D01*
X154117Y41617D01*
X154500Y41459D01*
X154500Y41459D01*
X159471D01*
Y21767D01*
X154699Y16996D01*
X151138D01*
Y15663D01*
X144862D01*
Y16862D01*
X141301D01*
X132581Y25581D01*
X132085Y25913D01*
X131500Y26029D01*
X127828D01*
X125662Y28195D01*
Y28886D01*
X125813Y28916D01*
X126370Y29288D01*
X126741Y29844D01*
X126872Y30500D01*
X126741Y31156D01*
X126370Y31712D01*
X125813Y32084D01*
X125157Y32214D01*
X121221D01*
X120565Y32084D01*
X120009Y31712D01*
X119637Y31156D01*
X119604Y30989D01*
X119064Y30839D01*
X119020Y30887D01*
Y33078D01*
X120141Y34199D01*
X120565Y33916D01*
X121221Y33786D01*
X125157D01*
X125813Y33916D01*
X126370Y34288D01*
X126741Y34844D01*
X126872Y35500D01*
X126741Y36156D01*
X126370Y36712D01*
X125813Y37084D01*
X125157Y37214D01*
X121221D01*
X120565Y37084D01*
X120009Y36712D01*
X119701Y36251D01*
X119349Y36181D01*
X119018Y35960D01*
X117279Y34221D01*
X117058Y33890D01*
X116980Y33500D01*
Y23500D01*
X117058Y23110D01*
X117279Y22779D01*
X123279Y16779D01*
X123610Y16558D01*
X124000Y16480D01*
X131578D01*
X133364Y14694D01*
X133173Y14232D01*
X129130D01*
Y13579D01*
X116363D01*
X116020Y13922D01*
Y35578D01*
X119536Y39094D01*
X120009Y39288D01*
X120565Y38916D01*
X121221Y38786D01*
X125157D01*
X125813Y38916D01*
X126370Y39288D01*
X126741Y39844D01*
X126872Y40500D01*
X126780Y40959D01*
X126956Y41359D01*
X127110Y41504D01*
X127383Y41617D01*
Y41617D01*
X127883Y42117D01*
X128041Y42500D01*
X127883Y42883D01*
X127883Y42883D01*
X127541Y43224D01*
Y47959D01*
X128500D01*
X128883Y48117D01*
X129041Y48500D01*
Y59000D01*
X128883Y59383D01*
X128500Y59541D01*
X125097D01*
Y60818D01*
X126253Y61974D01*
X140500D01*
X141283Y62077D01*
X142013Y62379D01*
X142640Y62860D01*
X150140Y70360D01*
X162140Y82360D01*
X162620Y82987D01*
X162923Y83717D01*
X163026Y84500D01*
Y95874D01*
X162949Y96459D01*
X163282Y96959D01*
X165000D01*
X165383Y97117D01*
X165541Y97500D01*
Y117000D01*
X165383Y117383D01*
X165000Y117541D01*
X142541D01*
Y123500D01*
X142383Y123883D01*
X142000Y124041D01*
X134724D01*
X134041Y124724D01*
Y128000D01*
X133883Y128383D01*
X133500Y128541D01*
X121000D01*
X120617Y128383D01*
X120459Y128000D01*
Y116724D01*
X117276Y113541D01*
X110500D01*
X110117Y113383D01*
X109959Y113000D01*
Y99500D01*
X110117Y99117D01*
X110117Y99117D01*
X112617Y96617D01*
X113000Y96459D01*
X113000Y96459D01*
X124459D01*
Y88004D01*
X124617Y87621D01*
X124778Y87555D01*
Y86443D01*
X121879D01*
X121642Y86541D01*
X121000D01*
X120617Y86383D01*
X120459Y86000D01*
Y84137D01*
X119041D01*
Y84500D01*
X118883Y84883D01*
X118500Y85041D01*
X106500D01*
X106117Y84883D01*
X106038Y84692D01*
X105497Y84526D01*
X103910Y86113D01*
Y103154D01*
X107547D01*
Y110846D01*
X96705D01*
Y103154D01*
X100342D01*
Y85374D01*
X100478Y84691D01*
X100864Y84112D01*
X104238Y80738D01*
X104238Y80738D01*
X104817Y80352D01*
X105500Y80216D01*
X105959D01*
Y70500D01*
X106117Y70117D01*
X106500Y69959D01*
X118500D01*
X118883Y70117D01*
X119041Y70500D01*
Y71630D01*
X123173D01*
Y72980D01*
X126268D01*
Y71130D01*
X130614D01*
Y75870D01*
X126268D01*
Y75020D01*
X124115D01*
X123924Y75481D01*
X124201Y75759D01*
X124422Y76090D01*
X124500Y76480D01*
Y79996D01*
X125319D01*
Y80586D01*
X125781Y80777D01*
X126181Y80377D01*
X126511Y80156D01*
X126681Y80123D01*
Y79996D01*
X128231D01*
Y79767D01*
X128308Y79377D01*
X128530Y79046D01*
X128819Y78757D01*
Y78166D01*
X129075Y77548D01*
X129548Y77075D01*
X130166Y76819D01*
X130834D01*
X131452Y77075D01*
X131925Y77548D01*
X132181Y78166D01*
Y78834D01*
X131925Y79452D01*
X131452Y79925D01*
X130834Y80181D01*
X130358D01*
Y81741D01*
X133071D01*
Y79532D01*
X134080D01*
Y79136D01*
X134216Y78453D01*
X134602Y77874D01*
X137081Y75396D01*
X137116Y75220D01*
X137558Y74558D01*
X138220Y74116D01*
X139000Y73961D01*
X139552D01*
X140024Y73645D01*
X141000Y73451D01*
X142770D01*
X143721Y72500D01*
X139247Y68026D01*
X125000D01*
X125000Y68026D01*
X124217Y67923D01*
X123487Y67620D01*
X122860Y67140D01*
X122860Y67140D01*
X119931Y64211D01*
X119451Y63584D01*
X119148Y62854D01*
X119045Y62071D01*
Y58811D01*
X115117Y54883D01*
X114959Y54500D01*
X114959Y54500D01*
Y51026D01*
X48026D01*
Y345800D01*
X60500D01*
Y366800D01*
D02*
G37*
G36*
X157370Y37732D02*
X152630D01*
Y36520D01*
X150120D01*
X149992Y36712D01*
X149435Y37084D01*
X148779Y37214D01*
X144843D01*
X144187Y37084D01*
X143631Y36712D01*
X143259Y36156D01*
X143129Y35500D01*
X143259Y34844D01*
X143631Y34288D01*
X144187Y33916D01*
X144843Y33786D01*
X148779D01*
X149435Y33916D01*
X149992Y34288D01*
X150120Y34480D01*
X152630D01*
Y33386D01*
X157370D01*
Y37732D01*
D02*
G37*
G36*
X191878Y31024D02*
X188122D01*
Y30102D01*
X186063D01*
X185283Y29947D01*
X184621Y29505D01*
X181621Y26505D01*
X181179Y25843D01*
X181024Y25063D01*
Y14037D01*
X180822Y13920D01*
X180143Y13241D01*
X179662Y12409D01*
X179413Y11480D01*
Y10520D01*
X179662Y9591D01*
X180143Y8759D01*
X180822Y8080D01*
X181654Y7599D01*
X182582Y7350D01*
X183544D01*
X184472Y7599D01*
X185304Y8080D01*
X185983Y8759D01*
X186464Y9591D01*
X186713Y10520D01*
Y11480D01*
X186464Y12409D01*
X185983Y13241D01*
X185304Y13920D01*
X185102Y14037D01*
Y24218D01*
X186908Y26024D01*
X188122D01*
Y25102D01*
X191878D01*
Y27274D01*
X191884Y27283D01*
X192039Y28063D01*
X191884Y28844D01*
X191878Y28853D01*
Y31024D01*
D02*
G37*
G36*
X224991Y17717D02*
X223828D01*
X222687Y17490D01*
X221612Y17044D01*
X220645Y16398D01*
X219822Y15576D01*
X219176Y14608D01*
X218731Y13534D01*
X218504Y12393D01*
Y11229D01*
X218731Y10088D01*
X219176Y9014D01*
X219822Y8046D01*
X220645Y7224D01*
X221612Y6578D01*
X222687Y6132D01*
X223828Y5906D01*
X224991D01*
X226132Y6132D01*
X227207Y6578D01*
X228174Y7224D01*
X228997Y8046D01*
X229643Y9014D01*
X230088Y10088D01*
X230315Y11229D01*
Y12393D01*
X230088Y13534D01*
X229643Y14608D01*
X228997Y15576D01*
X228174Y16398D01*
X227207Y17044D01*
X226132Y17490D01*
X224991Y17717D01*
D02*
G37*
G36*
X12393D02*
X11229D01*
X10088Y17490D01*
X9014Y17044D01*
X8046Y16398D01*
X7224Y15576D01*
X6578Y14608D01*
X6132Y13534D01*
X5906Y12393D01*
Y11229D01*
X6132Y10088D01*
X6578Y9014D01*
X7224Y8046D01*
X8046Y7224D01*
X9014Y6578D01*
X10088Y6132D01*
X11229Y5906D01*
X12393D01*
X13534Y6132D01*
X14608Y6578D01*
X15576Y7224D01*
X16398Y8046D01*
X17044Y9014D01*
X17490Y10088D01*
X17717Y11229D01*
Y12393D01*
X17490Y13534D01*
X17044Y14608D01*
X16398Y15576D01*
X15576Y16398D01*
X14608Y17044D01*
X13534Y17490D01*
X12393Y17717D01*
D02*
G37*
%LPD*%
G36*
X204480Y302254D02*
Y301635D01*
X199279Y296434D01*
X199058Y296103D01*
X198980Y295713D01*
Y285000D01*
X199058Y284610D01*
X199279Y284279D01*
X202512Y281046D01*
X202232Y280561D01*
X201957Y279532D01*
Y278468D01*
X202077Y278019D01*
X198078Y274020D01*
X194500D01*
X194110Y273942D01*
X193779Y273721D01*
X192279Y272221D01*
X192058Y271890D01*
X191980Y271500D01*
Y248795D01*
X192011Y248644D01*
X191647Y248252D01*
X191382Y248361D01*
Y272940D01*
X193954Y275512D01*
X194439Y275232D01*
X195468Y274957D01*
X196532D01*
X197561Y275232D01*
X198483Y275765D01*
X199235Y276517D01*
X199768Y277439D01*
X200043Y278468D01*
Y279532D01*
X199768Y280561D01*
X199235Y281483D01*
X198483Y282235D01*
X197561Y282768D01*
X197020Y282913D01*
Y295078D01*
X203721Y301779D01*
X203942Y302110D01*
X203980Y302303D01*
X204480Y302254D01*
D02*
G37*
G36*
X151500Y320000D02*
X144772D01*
X144334Y320181D01*
X143666D01*
X143228Y320000D01*
X142138D01*
Y320181D01*
X137200D01*
Y320000D01*
X136272D01*
X135834Y320181D01*
X135166D01*
X134728Y320000D01*
X122500D01*
Y331000D01*
X151500D01*
Y320000D01*
D02*
G37*
G36*
X165000Y97500D02*
X148100D01*
X148000Y97541D01*
X148000Y97541D01*
X142000D01*
Y98235D01*
X142383Y98617D01*
X142541Y99000D01*
X142541Y99000D01*
Y117000D01*
X165000D01*
Y97500D01*
D02*
G37*
G36*
X150000Y95000D02*
Y85500D01*
X138000D01*
Y96459D01*
X140000D01*
X140000Y96459D01*
X140383Y96617D01*
X140765Y97000D01*
X148000D01*
X150000Y95000D01*
D02*
G37*
G36*
X137459Y91370D02*
X133268D01*
Y90020D01*
X130567D01*
X130177Y89942D01*
X129846Y89721D01*
X128637Y88512D01*
X128416Y88182D01*
X128381Y88004D01*
X127541D01*
Y96459D01*
X137459D01*
Y91370D01*
D02*
G37*
G36*
X133500Y124500D02*
X134500Y123500D01*
X142000D01*
Y99000D01*
X140000Y97000D01*
X127000D01*
Y88004D01*
X126681D01*
Y85901D01*
X130358D01*
Y86000D01*
X131000D01*
Y84290D01*
X128520D01*
X128032Y84193D01*
X127843Y84067D01*
X126681D01*
Y84000D01*
X125319D01*
Y84067D01*
X123834D01*
X123480Y84137D01*
X121000D01*
Y86000D01*
X121642D01*
Y85901D01*
X125319D01*
Y88004D01*
X125000D01*
Y96500D01*
X125500Y97000D01*
X113000D01*
X110500Y99500D01*
Y113000D01*
X117500D01*
X121000Y116500D01*
Y128000D01*
X133500D01*
Y124500D01*
D02*
G37*
G36*
X156974Y94621D02*
Y85753D01*
X148000Y76779D01*
X146640Y78140D01*
X146013Y78620D01*
X145283Y78923D01*
X144500Y79026D01*
X143717Y78923D01*
X142987Y78620D01*
X142894Y78549D01*
X141000D01*
X140024Y78355D01*
X139552Y78039D01*
X139484D01*
X137648Y79875D01*
Y81478D01*
X137648Y81478D01*
X137614Y81651D01*
Y84469D01*
X133071D01*
Y84290D01*
X131541D01*
Y86000D01*
X131383Y86383D01*
X131000Y86541D01*
X130670D01*
X130378Y87004D01*
Y87369D01*
X130989Y87980D01*
X133268D01*
Y86630D01*
X137459D01*
Y85500D01*
X137617Y85117D01*
X138000Y84959D01*
X150000D01*
X150383Y85117D01*
X150541Y85500D01*
Y95000D01*
X150541Y95000D01*
X150383Y95383D01*
X150383Y95383D01*
X149268Y96497D01*
X149460Y96959D01*
X154636D01*
X156974Y94621D01*
D02*
G37*
G36*
X118500Y70500D02*
X106500D01*
Y84500D01*
X118500D01*
Y70500D01*
D02*
G37*
G36*
X164117Y53729D02*
X164076Y53630D01*
X164000Y53554D01*
Y53446D01*
X163959Y53347D01*
Y42000D01*
X162529D01*
Y43602D01*
X162413Y44188D01*
X162081Y44684D01*
X160018Y46748D01*
Y47000D01*
X159901Y47585D01*
X159570Y48081D01*
X159073Y48413D01*
X158488Y48529D01*
X157903Y48413D01*
X157407Y48081D01*
X157075Y47585D01*
X156959Y47000D01*
Y46114D01*
X157075Y45529D01*
X157407Y45033D01*
X159471Y42969D01*
Y42000D01*
X154500D01*
X153500Y43000D01*
X143000D01*
Y58500D01*
X159347D01*
X164117Y53729D01*
D02*
G37*
G36*
X128500Y48500D02*
X127000D01*
Y43000D01*
X127500Y42500D01*
X127000Y42000D01*
X125938D01*
X125813Y42084D01*
X125157Y42214D01*
X121221D01*
X120565Y42084D01*
X120440Y42000D01*
X115500D01*
Y54500D01*
X120000Y59000D01*
X128500D01*
Y48500D01*
D02*
G37*
G36*
X219500D02*
X209500Y32500D01*
X190041D01*
Y40959D01*
X192000D01*
X192383Y41117D01*
X192383Y41117D01*
X194883Y43617D01*
X195041Y44000D01*
X195041Y44000D01*
Y53500D01*
X194883Y53883D01*
X194500Y54041D01*
Y67000D01*
X219500D01*
Y48500D01*
D02*
G37*
G36*
X165000Y53500D02*
X194500D01*
Y44000D01*
X192000Y41500D01*
X189500D01*
Y32500D01*
X182500D01*
Y41000D01*
X181500Y42000D01*
X164500D01*
Y53347D01*
X164962Y53538D01*
X165000Y53500D01*
D02*
G37*
G36*
X95000Y18875D02*
X94500Y18541D01*
X87724D01*
X87404Y18862D01*
X87225Y18936D01*
X87114Y19010D01*
X86634Y19105D01*
X86272Y19347D01*
X86237Y19383D01*
X85854Y19541D01*
X85854Y19541D01*
X75685D01*
Y38685D01*
X76000Y39000D01*
X95000D01*
Y18875D01*
D02*
G37*
G36*
X119604Y30011D02*
X119637Y29844D01*
X120009Y29288D01*
X120565Y28916D01*
X121221Y28786D01*
X122603D01*
Y27562D01*
X122719Y26977D01*
X123051Y26480D01*
X126113Y23419D01*
X126609Y23087D01*
X127194Y22971D01*
X130867D01*
X139138Y14699D01*
Y12457D01*
X138676Y12266D01*
X132721Y18221D01*
X132390Y18442D01*
X132000Y18520D01*
X124422D01*
X119020Y23922D01*
Y30113D01*
X119064Y30161D01*
X119604Y30011D01*
D02*
G37*
G36*
X85927Y18927D02*
X86423Y18595D01*
X87008Y18479D01*
X87021D01*
X87500Y18000D01*
X94500D01*
Y8000D01*
X81500D01*
X75500Y14000D01*
Y19000D01*
X85854D01*
X85927Y18927D01*
D02*
G37*
%LPC*%
G36*
X187126Y48529D02*
X186541Y48413D01*
X186045Y48081D01*
X185178Y47215D01*
X184847Y46719D01*
X184730Y46134D01*
X184847Y45549D01*
X185178Y45052D01*
X185675Y44721D01*
X186260Y44604D01*
X186845Y44721D01*
X187341Y45052D01*
X188207Y45919D01*
X188539Y46415D01*
X188655Y47000D01*
X188539Y47585D01*
X188207Y48081D01*
X187711Y48413D01*
X187126Y48529D01*
D02*
G37*
G36*
X93138Y25421D02*
X88201D01*
Y22059D01*
X93138D01*
Y25421D01*
D02*
G37*
%LPD*%
D10*
X170000Y183000D02*
X172646Y180354D01*
X147000Y229000D02*
X170000Y206000D01*
Y183000D02*
Y206000D01*
X172646Y174661D02*
Y180354D01*
X193000Y248795D02*
X196268Y245528D01*
X193000Y248795D02*
Y271500D01*
X196268Y243559D02*
Y245528D01*
X196000Y295500D02*
X203000Y302500D01*
X170000Y349000D02*
X203000Y316000D01*
Y302500D02*
Y316000D01*
X148000Y356000D02*
X151000Y353000D01*
X170500D02*
X205500Y318000D01*
X151000Y353000D02*
X170500D01*
X148000Y356000D02*
Y368000D01*
X205500Y301213D02*
Y318000D01*
X200000Y295713D02*
X205500Y301213D01*
X200000Y285000D02*
X206000Y279000D01*
X200000Y285000D02*
Y295713D01*
X143500Y349000D02*
X170000D01*
X138000Y354500D02*
X143500Y349000D01*
X138000Y354500D02*
Y368000D01*
X210676Y324999D02*
Y334991D01*
X215216Y339531D01*
X196000Y279000D02*
Y295500D01*
X139500Y151879D02*
X142879Y148500D01*
X197828Y110984D02*
X199553D01*
X202502Y106586D02*
Y108036D01*
X199553Y110984D02*
X202502Y108036D01*
X201002Y106586D02*
Y107414D01*
X158191Y148500D02*
X197207Y109484D01*
X158813Y150000D02*
X197828Y110984D01*
X197207Y109484D02*
X198932D01*
X201002Y107414D01*
X200416Y106000D02*
X201002Y106586D01*
X205882Y129659D02*
Y149000D01*
X207000Y127000D02*
Y128541D01*
X205882Y129659D02*
X207000Y128541D01*
X127250Y198000D02*
X127368Y198118D01*
X148000D01*
X129199Y81047D02*
X129251Y80996D01*
Y79767D02*
Y80996D01*
X128520Y81047D02*
X129199D01*
X129251Y79767D02*
X130500Y78517D01*
Y78500D02*
Y78517D01*
X126902Y81098D02*
X128469D01*
X123531Y82965D02*
X125035D01*
X123480Y83016D02*
X123531Y82965D01*
X128469Y81098D02*
X128520Y81047D01*
X125035Y82965D02*
X126902Y81098D01*
X142879Y148500D02*
X158191D01*
X143500Y150000D02*
X158813D01*
X189244Y91244D02*
X198244D01*
X187000Y89000D02*
X189244Y91244D01*
X187000Y83500D02*
Y89000D01*
Y83500D02*
X193941Y76559D01*
X139500Y10000D02*
X157500D01*
X132000Y17500D02*
X139500Y10000D01*
X124000Y17500D02*
X132000D01*
X118000Y23500D02*
Y33500D01*
Y23500D02*
X124000Y17500D01*
X164000Y13059D02*
X164197D01*
X149205Y174661D02*
X160835D01*
X189000Y167500D02*
X190362Y168862D01*
X186000Y164500D02*
X189000Y167500D01*
X148331Y309669D02*
Y314760D01*
Y309669D02*
X148500Y309500D01*
X210500Y315500D02*
Y324823D01*
X210676Y324999D01*
X156500Y279500D02*
Y287500D01*
X156000Y279000D02*
X156500Y279500D01*
X215216Y339531D02*
X215413D01*
X216685Y340803D01*
Y341000D01*
X206469Y269468D02*
X216000Y279000D01*
X203929Y269468D02*
X206469D01*
X183059Y312941D02*
X186500Y309500D01*
X183059Y312941D02*
Y320000D01*
X186000Y279000D02*
Y309000D01*
X186500Y309500D01*
X176000Y279000D02*
Y309000D01*
X176500Y309500D01*
X208519Y300562D02*
X210676Y302720D01*
Y303999D01*
X207441Y291000D02*
Y299977D01*
X208027Y300562D01*
X208519D01*
X212559Y291000D02*
X222000D01*
X213732Y289630D02*
X213929D01*
X216000Y279000D02*
Y287559D01*
X213929Y289630D02*
X216000Y287559D01*
X212559Y290803D02*
X213732Y289630D01*
X212559Y290803D02*
Y291000D01*
X202658Y268000D02*
Y268197D01*
X203929Y269468D01*
X193000Y271500D02*
X194500Y273000D01*
X198500D01*
X204500Y279000D01*
X206000D01*
X202500Y267843D02*
X202658Y268000D01*
X202500Y260559D02*
Y267843D01*
X198500Y256559D02*
X201130Y259189D01*
X202303Y260559D02*
X202500D01*
X201130Y259386D02*
X202303Y260559D01*
X201130Y259189D02*
Y259386D01*
X198500Y252000D02*
Y256559D01*
Y252000D02*
X202090Y248410D01*
Y243642D02*
Y248410D01*
Y243642D02*
X202173Y243559D01*
X190362Y273362D02*
X196000Y279000D01*
X190362Y243559D02*
Y273362D01*
X166740Y243559D02*
Y268260D01*
X156000Y279000D02*
X166740Y268260D01*
X172646Y243559D02*
Y272354D01*
X166000Y279000D02*
X172646Y272354D01*
X178551Y243559D02*
Y275371D01*
X176000Y277922D02*
X178551Y275371D01*
X176000Y277922D02*
Y279000D01*
X184457Y275810D02*
X186000Y277353D01*
X184457Y243559D02*
Y275810D01*
X186000Y277353D02*
Y279000D01*
X230614Y63000D02*
X231480Y63866D01*
X222040Y63000D02*
X230614D01*
X198903Y91903D02*
Y93534D01*
X198244Y91244D02*
X198903Y91903D01*
Y93534D02*
X199369Y94000D01*
X193941Y76559D02*
X198480D01*
X206480D02*
Y83980D01*
X209280Y86779D02*
Y87768D01*
X206480Y83980D02*
X209280Y86779D01*
Y87768D02*
X210000Y88488D01*
X205736Y87236D02*
Y87768D01*
X206456Y88488D01*
X203000Y84500D02*
X205736Y87236D01*
X203300Y98763D02*
Y99439D01*
X203261Y98724D02*
X203300Y98763D01*
X203000Y97500D02*
X203261Y97761D01*
Y98724D01*
X197567Y106000D02*
X200416D01*
X201002Y105414D01*
Y101736D02*
X203300Y99439D01*
X201002Y101736D02*
Y105414D01*
X205736Y93279D02*
X206456Y94000D01*
Y98403D01*
X203633Y90133D02*
X205736Y92236D01*
Y93279D01*
X203633Y89209D02*
Y90133D01*
X202502Y105414D02*
X203088Y106000D01*
X202502Y102358D02*
Y105414D01*
Y102358D02*
X206456Y98403D01*
X202913Y88488D02*
X203633Y89209D01*
X139500Y151879D02*
Y165121D01*
X142603Y168224D01*
X179754D01*
X180020Y171224D02*
X180168D01*
X180754Y169224D02*
Y170639D01*
X179754Y168224D02*
X180754Y169224D01*
X178551Y172693D02*
X180020Y171224D01*
X180168D02*
X180754Y170639D01*
X182254Y168603D02*
Y170639D01*
X143224Y166724D02*
X180375D01*
X141000Y164500D02*
X143224Y166724D01*
X178551Y172693D02*
Y174661D01*
X184457Y172693D02*
Y174661D01*
X182988Y171224D02*
X184457Y172693D01*
X182840Y171224D02*
X182988D01*
X182254Y170639D02*
X182840Y171224D01*
X180375Y166724D02*
X182254Y168603D01*
X141000Y152500D02*
Y164500D01*
Y152500D02*
X143500Y150000D01*
X202502Y106586D02*
X203088Y106000D01*
X205937D01*
X196000Y148118D02*
Y160000D01*
X148000Y184134D02*
Y193000D01*
Y175866D02*
X149205Y174661D01*
X147000Y219000D02*
X166740Y199260D01*
Y174661D02*
Y199260D01*
X190362Y168862D02*
Y174661D01*
X186000Y160000D02*
Y164500D01*
X196000Y160000D02*
Y174394D01*
X196268Y174661D01*
X208079Y167921D02*
X216000Y160000D01*
X208079Y167921D02*
Y174661D01*
X202173Y167827D02*
X205542Y164457D01*
X202173Y167827D02*
Y174661D01*
X205542Y160458D02*
X206000Y160000D01*
X205542Y160458D02*
Y164457D01*
X216000Y142000D02*
X217000Y141000D01*
Y127000D02*
Y141000D01*
X216000Y142000D02*
Y160000D01*
X206000Y149118D02*
Y160000D01*
X205882Y149000D02*
X206000Y149118D01*
X186000Y149559D02*
Y160000D01*
X185000Y148559D02*
X186000Y149559D01*
X146811Y35500D02*
X154941D01*
X155000Y35559D01*
X133420Y5768D02*
X133456Y5732D01*
X142000D01*
X131500Y6941D02*
X132673Y5768D01*
X133420D01*
X162630Y6571D02*
Y6768D01*
X163803Y7941D02*
X164000D01*
X162630Y6768D02*
X163803Y7941D01*
X161925Y5866D02*
X162630Y6571D01*
X154000Y5866D02*
X161925D01*
X160559Y13059D02*
X164000D01*
X157500Y10000D02*
X160559Y13059D01*
X118000Y33500D02*
X119739Y35239D01*
X122928D02*
X123189Y35500D01*
X119739Y35239D02*
X122928D01*
X115000Y13500D02*
X115941Y12559D01*
X132000D01*
X115000Y13500D02*
Y36000D01*
X119464Y40464D01*
X123153D01*
X123189Y40500D01*
X121000Y74000D02*
X128441D01*
X122173Y75370D02*
X122370D01*
X121000Y74000D02*
Y74197D01*
X123480Y76480D02*
Y81047D01*
X122370Y75370D02*
X123480Y76480D01*
X121000Y74197D02*
X122173Y75370D01*
X129307Y86953D02*
X129358Y87004D01*
X128520Y86953D02*
X129307D01*
X130567Y89000D02*
X135441D01*
X129358Y87791D02*
X130567Y89000D01*
X129358Y87004D02*
Y87791D01*
D21*
X230000Y72134D02*
D03*
Y63866D02*
D03*
X148000Y175866D02*
D03*
Y184134D02*
D03*
X142000Y14000D02*
D03*
Y5732D02*
D03*
X154000Y5866D02*
D03*
Y14134D02*
D03*
D22*
X216921Y63000D02*
D03*
X222040D02*
D03*
X211000Y149000D02*
D03*
X205882D02*
D03*
X210882Y142000D02*
D03*
X216000D02*
D03*
X212559Y291000D02*
D03*
X207441D02*
D03*
X183059Y320000D02*
D03*
X177941D02*
D03*
X133559Y73500D02*
D03*
X128441D02*
D03*
X121000Y74000D02*
D03*
X115882D02*
D03*
X135441Y89000D02*
D03*
X140559D02*
D03*
D23*
X206480Y76559D02*
D03*
Y71441D02*
D03*
X198480Y76559D02*
D03*
Y71441D02*
D03*
X148000Y193000D02*
D03*
Y198118D02*
D03*
X196000Y148118D02*
D03*
Y143000D02*
D03*
X185000Y143441D02*
D03*
Y148559D02*
D03*
X202500Y255441D02*
D03*
Y260559D02*
D03*
X155000Y35559D02*
D03*
Y30441D02*
D03*
X131500Y12059D02*
D03*
Y6941D02*
D03*
X91000Y5441D02*
D03*
Y10559D02*
D03*
X164000Y13059D02*
D03*
Y7941D02*
D03*
D24*
X190480Y106000D02*
D03*
X197567D02*
D03*
X213024D02*
D03*
X205937D02*
D03*
D25*
X228480Y87457D02*
D03*
Y94543D02*
D03*
D26*
X202658Y268000D02*
D03*
X197343D02*
D03*
X216500Y255500D02*
D03*
X211185D02*
D03*
X216500Y263500D02*
D03*
X211185D02*
D03*
X145658Y54000D02*
D03*
X140342D02*
D03*
X126000D02*
D03*
X131315D02*
D03*
X135343Y82000D02*
D03*
X140657D02*
D03*
X216685Y341000D02*
D03*
X222000D02*
D03*
X221342Y291000D02*
D03*
X226658D02*
D03*
D27*
X45000Y31000D02*
D03*
Y356300D02*
D03*
D28*
X208079Y243559D02*
D03*
X202173D02*
D03*
X196268D02*
D03*
X190362D02*
D03*
X184457D02*
D03*
X178551D02*
D03*
X172646D02*
D03*
X166740D02*
D03*
X160835D02*
D03*
Y174661D02*
D03*
X166740D02*
D03*
X172646D02*
D03*
X178551D02*
D03*
X184457D02*
D03*
X190362D02*
D03*
X196268D02*
D03*
X202173D02*
D03*
X208079D02*
D03*
D29*
X188000Y209661D02*
D03*
X183669D02*
D03*
X179339D02*
D03*
X188000Y205331D02*
D03*
X183669D02*
D03*
X179339D02*
D03*
Y201000D02*
D03*
X183669D02*
D03*
X188000D02*
D03*
D30*
X129000Y324012D02*
D03*
Y312988D02*
D03*
D31*
X81000Y22315D02*
D03*
Y17000D02*
D03*
X138000Y140000D02*
D03*
Y134685D02*
D03*
Y121343D02*
D03*
Y126657D02*
D03*
X113000Y87315D02*
D03*
Y82000D02*
D03*
D32*
X202874Y47000D02*
D03*
X187126D02*
D03*
X117874Y107000D02*
D03*
X102126D02*
D03*
X133126D02*
D03*
X148874D02*
D03*
D33*
X123189Y45500D02*
D03*
Y40500D02*
D03*
Y35500D02*
D03*
Y30500D02*
D03*
X146811Y45500D02*
D03*
Y40500D02*
D03*
Y35500D02*
D03*
Y30500D02*
D03*
D34*
X135000Y38000D02*
D03*
D35*
X169512Y47000D02*
D03*
X158488D02*
D03*
X89488Y33000D02*
D03*
X100512D02*
D03*
D36*
X99331Y23740D02*
D03*
Y16260D02*
D03*
X90669Y23740D02*
D03*
X90669Y16260D02*
D03*
Y20000D02*
D03*
X139669Y318500D02*
D03*
Y314760D02*
D03*
X139669Y322240D02*
D03*
X148331Y314760D02*
D03*
Y322240D02*
D03*
D37*
X127250Y123945D02*
D03*
Y133000D02*
D03*
Y142055D02*
D03*
D38*
X104750Y133000D02*
D03*
D39*
X193740Y35937D02*
D03*
X186260D02*
D03*
X190000Y28063D02*
D03*
D40*
X128520Y86953D02*
D03*
Y84984D02*
D03*
Y83016D02*
D03*
Y81047D02*
D03*
X123480D02*
D03*
Y83016D02*
D03*
Y84984D02*
D03*
Y86953D02*
D03*
D41*
X228000Y325000D02*
D03*
X210676Y324999D02*
D03*
X228000Y304000D02*
D03*
X210676Y303999D02*
D03*
D74*
X91000Y5441D02*
X101441D01*
X110000Y14000D01*
Y37000D01*
X118500Y45500D02*
X120689D01*
X123189D01*
X110000Y37000D02*
X118500Y45500D01*
X159500Y134000D02*
X165500D01*
X149000Y144500D02*
X159500Y134000D01*
X137500Y144500D02*
X149000D01*
X196000Y136000D02*
Y143000D01*
Y128000D02*
Y136000D01*
X210882Y136216D02*
X211000Y136098D01*
X210882Y136216D02*
Y142000D01*
X211000Y136000D02*
Y136098D01*
X196000Y128000D02*
X197000Y127000D01*
X210882Y148882D02*
X211000Y149000D01*
X210882Y142000D02*
Y148882D01*
X127194Y24500D02*
X131500D01*
X123189Y30500D02*
X123965D01*
X124132Y30333D01*
Y27562D02*
X127194Y24500D01*
X124132Y27562D02*
Y30333D01*
X131500Y24500D02*
X142000Y14000D01*
X142134Y14134D02*
X154000D01*
X142000Y14000D02*
X142134Y14134D01*
X158488Y46114D02*
Y47000D01*
Y46114D02*
X161000Y43602D01*
Y21134D02*
Y43602D01*
X154000Y14134D02*
X161000Y21134D01*
X169787Y311846D02*
X177071Y319130D01*
X177268D01*
X177941Y319803D01*
X166500Y309500D02*
X168846Y311846D01*
X169787D01*
X177941Y319803D02*
Y320000D01*
X148331Y322240D02*
X149118D01*
X149300Y322059D01*
Y321272D02*
Y322059D01*
Y321272D02*
X161071Y309500D01*
X166500D01*
X222622Y94543D02*
X228480D01*
X213739Y88488D02*
Y94000D01*
X81095Y22220D02*
X84797D01*
X87008Y20008D02*
X90661D01*
X90669Y20000D01*
X81000Y22315D02*
X81095Y22220D01*
X84797D02*
X87008Y20008D01*
X90819Y16260D02*
X91000Y16079D01*
X90669Y16260D02*
X90819D01*
X81000Y17000D02*
X81740Y16260D01*
X186260Y46134D02*
X187126Y47000D01*
D75*
X127250Y198000D02*
Y228250D01*
Y142055D02*
Y198000D01*
X150449Y107000D02*
X151295Y107846D01*
X148874Y107000D02*
X150449D01*
X144500Y76000D02*
X148000Y72500D01*
X160000Y84500D01*
X140500Y65000D02*
X148000Y72500D01*
X151295Y104579D02*
X160000Y95874D01*
Y84500D02*
Y95874D01*
X122071Y57929D02*
Y62071D01*
Y57929D02*
X126000Y54000D01*
X125000Y65000D02*
X140500D01*
X122071Y62071D02*
X125000Y65000D01*
X208079Y234929D02*
Y243559D01*
X149846Y238154D02*
X156000Y232000D01*
X205150D01*
X208079Y234929D01*
X128252Y324150D02*
Y326689D01*
X128390Y324012D02*
X129000D01*
X128000Y326941D02*
Y368000D01*
Y326941D02*
X128252Y326689D01*
Y324150D02*
X128390Y324012D01*
X128252Y312850D02*
X128390Y312988D01*
X129000D01*
X128252Y312240D02*
Y312850D01*
X127250Y311238D02*
X128252Y312240D01*
X127250Y228250D02*
Y311238D01*
X147000Y239000D02*
X147846Y238154D01*
X149846D01*
X138000Y239000D02*
X147000D01*
X127250Y228250D02*
X138000Y239000D01*
X120689Y48000D02*
X123189Y45500D01*
X44000Y48000D02*
X120689D01*
X20000D02*
X44000D01*
X45000Y49000D02*
Y356300D01*
X44000Y48000D02*
X45000Y49000D01*
Y31000D02*
X67000D01*
X75685Y22315D01*
X81000D01*
X12126Y36303D02*
X15055Y33374D01*
X42626D01*
X12126Y36303D02*
Y47861D01*
D76*
X114016Y83016D02*
X123480D01*
D77*
X113000Y82000D02*
X114016Y83016D01*
X134327D02*
X135343Y82000D01*
X128520Y83016D02*
X134327D01*
X219128Y91049D02*
X220539Y92461D01*
X216921Y63000D02*
X217118Y63197D01*
X213739Y91049D02*
X219128D01*
D78*
X139000Y76000D02*
X141000D01*
X213214Y271228D02*
X222806D01*
X211457Y263772D02*
Y269471D01*
X213214Y271228D01*
X222806D02*
X224564Y272986D01*
Y277564D01*
X226000Y279000D01*
X211185Y263500D02*
X211457Y263772D01*
X222000Y79793D02*
Y91000D01*
X217118Y74911D02*
X222000Y79793D01*
X217118Y63197D02*
Y74911D01*
X183063Y11000D02*
Y25063D01*
X186063Y28063D02*
X190000D01*
X183063Y25063D02*
X186063Y28063D01*
D79*
X135864Y79136D02*
Y81478D01*
Y79136D02*
X139000Y76000D01*
X135343Y82000D02*
X135864Y81478D01*
X220539Y92461D02*
X222000Y91000D01*
X220539Y92461D02*
X222622Y94543D01*
X102126Y85374D02*
X105500Y82000D01*
X102126Y85374D02*
Y107000D01*
X105500Y82000D02*
X113000D01*
D80*
X141000Y76000D02*
X144500D01*
D81*
X183063Y11000D02*
D03*
X190937D02*
D03*
D82*
X128000Y368000D02*
D03*
X197000Y127000D02*
D03*
X166500Y309500D02*
D03*
D83*
X138000Y368000D02*
D03*
X148000D02*
D03*
X158000D02*
D03*
X227000Y127000D02*
D03*
X217000D02*
D03*
X207000D02*
D03*
X147000Y229000D02*
D03*
Y219000D02*
D03*
Y209000D02*
D03*
X176500Y309500D02*
D03*
X186500D02*
D03*
X196500D02*
D03*
D84*
X217480Y94000D02*
D03*
X213739D02*
D03*
X210000D02*
D03*
X206456D02*
D03*
X202913D02*
D03*
X199369D02*
D03*
X195629D02*
D03*
X191889D02*
D03*
Y88488D02*
D03*
X195629D02*
D03*
X199369D02*
D03*
X202913D02*
D03*
X206456D02*
D03*
X210000D02*
D03*
X213739D02*
D03*
X217480D02*
D03*
D85*
X196810Y98843D02*
D03*
X212559D02*
D03*
X196810Y83646D02*
D03*
X212559D02*
D03*
D86*
X76496Y334752D02*
D03*
D87*
X11811Y11811D02*
D03*
X224410D02*
D03*
X11811Y381890D02*
D03*
X224410D02*
D03*
D88*
X226000Y279000D02*
D03*
Y160000D02*
D03*
D89*
X216000Y279000D02*
D03*
X206000D02*
D03*
X196000D02*
D03*
X186000D02*
D03*
X176000D02*
D03*
X166000D02*
D03*
X156000D02*
D03*
X216000Y160000D02*
D03*
X206000D02*
D03*
X196000D02*
D03*
X186000D02*
D03*
X176000D02*
D03*
X166000D02*
D03*
X156000D02*
D03*
D90*
X12126Y48000D02*
D03*
D91*
X20000D02*
D03*
D92*
X147000Y239000D02*
D03*
D93*
X156000Y250000D02*
D03*
Y241000D02*
D03*
X232000Y358000D02*
D03*
Y372000D02*
D03*
Y387000D02*
D03*
X181000Y390000D02*
D03*
X195000D02*
D03*
X210000D02*
D03*
X138000D02*
D03*
X152000D02*
D03*
X167000D02*
D03*
X95000D02*
D03*
X109000D02*
D03*
X124000D02*
D03*
X56000D02*
D03*
X70000D02*
D03*
X85000D02*
D03*
X11000D02*
D03*
X25000D02*
D03*
X40000D02*
D03*
X3000Y386000D02*
D03*
Y372000D02*
D03*
Y357000D02*
D03*
Y347000D02*
D03*
Y333000D02*
D03*
Y318000D02*
D03*
Y303000D02*
D03*
Y289000D02*
D03*
Y274000D02*
D03*
Y261000D02*
D03*
Y247000D02*
D03*
Y232000D02*
D03*
Y215000D02*
D03*
Y201000D02*
D03*
Y186000D02*
D03*
Y170000D02*
D03*
Y156000D02*
D03*
Y141000D02*
D03*
Y124000D02*
D03*
Y110000D02*
D03*
Y95000D02*
D03*
Y80000D02*
D03*
Y66000D02*
D03*
Y51000D02*
D03*
Y38000D02*
D03*
Y24000D02*
D03*
Y9000D02*
D03*
X39000Y3000D02*
D03*
X25000D02*
D03*
X10000D02*
D03*
X55000D02*
D03*
X70000D02*
D03*
X84000D02*
D03*
X106000D02*
D03*
X113000D02*
D03*
X119000D02*
D03*
X125000D02*
D03*
X154000Y207000D02*
D03*
X139000Y209000D02*
D03*
X145000Y127000D02*
D03*
Y134000D02*
D03*
X116000Y133000D02*
D03*
X93000D02*
D03*
X105000Y121000D02*
D03*
Y144000D02*
D03*
X107000Y88000D02*
D03*
X119000D02*
D03*
X121000Y93000D02*
D03*
X113000D02*
D03*
X139000Y72000D02*
D03*
X100000Y11000D02*
D03*
X106000Y33000D02*
D03*
Y42000D02*
D03*
X98000D02*
D03*
X105000Y24000D02*
D03*
Y16000D02*
D03*
X191000Y4000D02*
D03*
X201000Y11000D02*
D03*
X191000Y19000D02*
D03*
X135000Y27000D02*
D03*
X155000Y26000D02*
D03*
X147000D02*
D03*
X136000Y48000D02*
D03*
X132000Y60000D02*
D03*
X140000D02*
D03*
X192000Y71000D02*
D03*
X212000D02*
D03*
X224000Y73000D02*
D03*
X230000Y78000D02*
D03*
X228000Y83000D02*
D03*
X233000Y87000D02*
D03*
X190000Y85000D02*
D03*
X189000Y97000D02*
D03*
X218000Y85000D02*
D03*
X219000Y98000D02*
D03*
X184000Y106000D02*
D03*
X219000D02*
D03*
X227000Y135000D02*
D03*
Y118000D02*
D03*
X179000Y143000D02*
D03*
X185000Y138000D02*
D03*
X156000Y153000D02*
D03*
X148000Y160000D02*
D03*
X233000Y159000D02*
D03*
X226000Y151000D02*
D03*
Y167000D02*
D03*
X173000Y215000D02*
D03*
Y209000D02*
D03*
Y203000D02*
D03*
Y196000D02*
D03*
X180000D02*
D03*
X187000D02*
D03*
X195000D02*
D03*
Y202000D02*
D03*
Y208000D02*
D03*
Y214000D02*
D03*
X188000Y215000D02*
D03*
X181000D02*
D03*
X223000Y264000D02*
D03*
Y255000D02*
D03*
X197000Y263000D02*
D03*
X227000Y286000D02*
D03*
X228000Y297000D02*
D03*
Y317000D02*
D03*
Y333000D02*
D03*
X222000Y335000D02*
D03*
Y348000D02*
D03*
X229000Y341000D02*
D03*
X166000Y368000D02*
D03*
X158000Y360000D02*
D03*
Y376000D02*
D03*
X137500Y144500D02*
D03*
X133000D02*
D03*
X165500Y134000D02*
D03*
X211000Y136000D02*
D03*
X196000D02*
D03*
X135500Y318500D02*
D03*
X144000D02*
D03*
X198000Y64000D02*
D03*
X204000Y59000D02*
D03*
X198000Y58500D02*
D03*
X204500Y64000D02*
D03*
X130500Y78500D02*
D03*
X108500Y76500D02*
D03*
X110500Y72000D02*
D03*
X112000Y76500D02*
D03*
X146706Y81793D02*
D03*
X117500Y79500D02*
D03*
X162000Y102000D02*
D03*
X150000Y115000D02*
D03*
X162000Y106500D02*
D03*
X161500Y112000D02*
D03*
X156000Y114500D02*
D03*
X147000Y88000D02*
D03*
Y93000D02*
D03*
X154500Y174500D02*
D03*
X148500Y309500D02*
D03*
X189000Y167500D02*
D03*
X210500Y315500D02*
D03*
X156500Y287500D02*
D03*
X142000Y94500D02*
D03*
X203000Y84500D02*
D03*
Y97500D02*
D03*
M02*
