M48
;Layer_Color=9474304
;FILE_FORMAT=2:4
INCH,TZ
;TYPE=PLATED
T1F00S00C0.0118
T2F00S00C0.0165
T4F00S00C0.0335
T5F00S00C0.0354
T6F00S00C0.0433
;TYPE=NON_PLATED
T7F00S00C0.0945
T8F00S00C0.0984
%
T01
X300Y900
X1000Y300
X2500
X3900
X5500
X300Y2400
Y3800
Y5100
X9800Y4200
X10600
Y3300
X10500Y2400
Y1600
X10000Y1100
X10600Y300
X11300
X11900
X12500
X13500Y2700
X14700Y2600
X15500
X13600Y4800
X19100Y1900
Y400
X20100Y1100
X8400Y300
X7000
X22400Y7300
X23000Y7800
X22800Y8300
X23300Y8700
X21800Y8500
X21900Y9800
Y10600
X22700Y11800
Y13500
X22600Y15100
X23300Y15900
X22600Y16700
X18900Y16750
X18700Y19600
X18000
X17300
Y20300
Y20900
X15400Y20700
X13900Y20900
X15450Y17450
X14800Y16000
X15600Y15300
X13750Y14450
X13300
X14500Y13400
Y12700
X15000Y11500
X15600Y11450
X16150Y11200
X16200Y10650
Y10200
X14700Y9300
Y8800
X14671Y8179
X14200Y9450
X12100Y9300
X11900Y8800
X11750Y7950
X11200Y7650
X10850
X11050Y7200
X10700Y8800
X11300Y9300
X13050Y7850
X13900Y7200
X14000Y6000
X13200
X19800Y5850
Y6400
X20450
X20400Y5900
X21200Y7100
X19200
X19000Y8500
X18900Y9700
X18400Y10600
X20300Y9750
Y8450
X19600Y13600
X18500Y13800
X17900Y14300
X16550Y13400
X21100Y13600
X19500Y19600
Y20200
Y20800
X11600Y13300
X10500Y14400
X9300Y13300
X10500Y12100
X300Y12400
Y11000
Y9500
Y8000
Y6600
Y14100
Y15600
Y17000
Y18600
Y20100
Y21500
Y23200
Y24700
Y26100
Y27400
Y28900
Y30300
Y31800
Y33300
Y34700
Y35700
X15800Y36000
X16600Y36800
X14400Y31850
X13550
X14850Y30950
X15650Y28750
X15600Y25000
Y24100
X17300Y21500
X18100
X18800
X19500Y21400
X19700Y26300
X21050Y31550
X22800Y31700
Y33300
X22200Y33500
Y34800
X22900Y34100
X23200Y35800
X22800Y29700
X22700Y28600
X22300Y26400
Y25500
X23200Y37200
Y38700
X21000Y39000
X19500
X18100
X16700
X15200
X13800
X12400
X10900
X9500
X8500
X7000
X15800Y37600
X5600Y39000
X4000
X2500
X1100
X300Y38600
Y37200
T02
X21374Y8849
X21748
X21748Y9400
X21374
X21000
X20646
X20291
X19937
X19563
X19189
Y8849
X19563
X19937
X20291
X20646
X21000
T04
X1213Y4800
X2000
T05
X18306Y1100
X19094
T06
X21700Y12700
X22700
X22600Y16000
X21600
X20600
X19600
X18600
X17600
X16600
X15600
X14700Y20900
X19700Y12700
X20700
X14700Y21900
Y22900
Y23900
X15600Y27900
X16600
X17600
X18600
X19600
X20600
X19650Y30950
X18650
X17650
X16650
X15800Y36800
X14800
X13800
X12800
X21600Y27900
X22600
T07
X7650Y33475
T08
X1181Y1181
X22441
Y38189
X1181
M30
