G04*
G04 #@! TF.GenerationSoftware,Altium Limited,Altium Designer,22.2.1 (43)*
G04*
G04 Layer_Color=8421504*
%FSLAX25Y25*%
%MOIN*%
G70*
G04*
G04 #@! TF.SameCoordinates,7FF29AC8-F327-4267-8616-DCF866A2A884*
G04*
G04*
G04 #@! TF.FilePolarity,Positive*
G04*
G01*
G75*
%ADD21R,0.04724X0.04724*%
%ADD22R,0.03347X0.03740*%
%ADD23R,0.03740X0.03347*%
%ADD24R,0.03150X0.01968*%
%ADD25R,0.01968X0.03150*%
%ADD26R,0.03543X0.03937*%
%ADD27R,0.30000X0.20000*%
%ADD28R,0.03937X0.07874*%
%ADD29R,0.02756X0.02756*%
%ADD30R,0.06496X0.04724*%
%ADD31R,0.03937X0.03543*%
%ADD32R,0.09843X0.06693*%
%ADD33O,0.06299X0.02362*%
%ADD34R,0.11811X0.13780*%
%ADD35R,0.04724X0.06496*%
%ADD36R,0.03937X0.02362*%
%ADD37R,0.09705X0.04134*%
%ADD38R,0.09705X0.13937*%
%ADD39R,0.02756X0.04921*%
%ADD40R,0.02677X0.01102*%
%ADD41R,0.05315X0.07874*%
D21*
X230000Y72134D02*
D03*
Y63866D02*
D03*
X148000Y175866D02*
D03*
Y184134D02*
D03*
X142000Y14000D02*
D03*
Y5732D02*
D03*
X154000Y5866D02*
D03*
Y14134D02*
D03*
D22*
X216921Y63000D02*
D03*
X222040D02*
D03*
X211000Y149000D02*
D03*
X205882D02*
D03*
X210882Y142000D02*
D03*
X216000D02*
D03*
X212559Y291000D02*
D03*
X207441D02*
D03*
X183059Y320000D02*
D03*
X177941D02*
D03*
X133559Y73500D02*
D03*
X128441D02*
D03*
X121000Y74000D02*
D03*
X115882D02*
D03*
X135441Y89000D02*
D03*
X140559D02*
D03*
D23*
X206480Y76559D02*
D03*
Y71441D02*
D03*
X198480Y76559D02*
D03*
Y71441D02*
D03*
X148000Y193000D02*
D03*
Y198118D02*
D03*
X196000Y148118D02*
D03*
Y143000D02*
D03*
X185000Y143441D02*
D03*
Y148559D02*
D03*
X202500Y255441D02*
D03*
Y260559D02*
D03*
X155000Y35559D02*
D03*
Y30441D02*
D03*
X131500Y12059D02*
D03*
Y6941D02*
D03*
X91000Y5441D02*
D03*
Y10559D02*
D03*
X164000Y13059D02*
D03*
Y7941D02*
D03*
D24*
X190480Y106000D02*
D03*
X197567D02*
D03*
X213024D02*
D03*
X205937D02*
D03*
D25*
X228480Y87457D02*
D03*
Y94543D02*
D03*
D26*
X202658Y268000D02*
D03*
X197343D02*
D03*
X216500Y255500D02*
D03*
X211185D02*
D03*
X216500Y263500D02*
D03*
X211185D02*
D03*
X145658Y54000D02*
D03*
X140342D02*
D03*
X126000D02*
D03*
X131315D02*
D03*
X135343Y82000D02*
D03*
X140657D02*
D03*
X216685Y341000D02*
D03*
X222000D02*
D03*
X221342Y291000D02*
D03*
X226658D02*
D03*
D27*
X45000Y31000D02*
D03*
Y356300D02*
D03*
D28*
X208079Y243559D02*
D03*
X202173D02*
D03*
X196268D02*
D03*
X190362D02*
D03*
X184457D02*
D03*
X178551D02*
D03*
X172646D02*
D03*
X166740D02*
D03*
X160835D02*
D03*
Y174661D02*
D03*
X166740D02*
D03*
X172646D02*
D03*
X178551D02*
D03*
X184457D02*
D03*
X190362D02*
D03*
X196268D02*
D03*
X202173D02*
D03*
X208079D02*
D03*
D29*
X188000Y209661D02*
D03*
X183669D02*
D03*
X179339D02*
D03*
X188000Y205331D02*
D03*
X183669D02*
D03*
X179339D02*
D03*
Y201000D02*
D03*
X183669D02*
D03*
X188000D02*
D03*
D30*
X129000Y324012D02*
D03*
Y312988D02*
D03*
D31*
X81000Y22315D02*
D03*
Y17000D02*
D03*
X138000Y140000D02*
D03*
Y134685D02*
D03*
Y121343D02*
D03*
Y126657D02*
D03*
X113000Y87315D02*
D03*
Y82000D02*
D03*
D32*
X202874Y47000D02*
D03*
X187126D02*
D03*
X117874Y107000D02*
D03*
X102126D02*
D03*
X133126D02*
D03*
X148874D02*
D03*
D33*
X123189Y45500D02*
D03*
Y40500D02*
D03*
Y35500D02*
D03*
Y30500D02*
D03*
X146811Y45500D02*
D03*
Y40500D02*
D03*
Y35500D02*
D03*
Y30500D02*
D03*
D34*
X135000Y38000D02*
D03*
D35*
X169512Y47000D02*
D03*
X158488D02*
D03*
X89488Y33000D02*
D03*
X100512D02*
D03*
D36*
X99331Y23740D02*
D03*
Y16260D02*
D03*
X90669Y23740D02*
D03*
X90669Y16260D02*
D03*
Y20000D02*
D03*
X139669Y318500D02*
D03*
Y314760D02*
D03*
X139669Y322240D02*
D03*
X148331Y314760D02*
D03*
Y322240D02*
D03*
D37*
X127250Y123945D02*
D03*
Y133000D02*
D03*
Y142055D02*
D03*
D38*
X104750Y133000D02*
D03*
D39*
X193740Y35937D02*
D03*
X186260D02*
D03*
X190000Y28063D02*
D03*
D40*
X128520Y86953D02*
D03*
Y84984D02*
D03*
Y83016D02*
D03*
Y81047D02*
D03*
X123480D02*
D03*
Y83016D02*
D03*
Y84984D02*
D03*
Y86953D02*
D03*
D41*
X228000Y325000D02*
D03*
X210676Y324999D02*
D03*
X228000Y304000D02*
D03*
X210676Y303999D02*
D03*
M02*
