G04*
G04 #@! TF.GenerationSoftware,Altium Limited,Altium Designer,22.2.1 (43)*
G04*
G04 Layer_Color=255*
%FSLAX25Y25*%
%MOIN*%
G70*
G04*
G04 #@! TF.SameCoordinates,7FF29AC8-F327-4267-8616-DCF866A2A884*
G04*
G04*
G04 #@! TF.FilePolarity,Positive*
G04*
G01*
G75*
%ADD81C,0.06299*%
%ADD82R,0.06693X0.06693*%
%ADD83C,0.06693*%
%ADD84R,0.02441X0.02441*%
%ADD85O,0.07874X0.03543*%
%ADD86C,0.09449*%
%ADD87C,0.09843*%
%ADD88R,0.07087X0.07087*%
%ADD89C,0.07087*%
%ADD90C,0.05512*%
%ADD91R,0.05906X0.05512*%
%ADD92R,0.06693X0.06693*%
D81*
X183063Y11000D02*
D03*
X190937D02*
D03*
D82*
X128000Y368000D02*
D03*
X197000Y127000D02*
D03*
X166500Y309500D02*
D03*
D83*
X138000Y368000D02*
D03*
X148000D02*
D03*
X158000D02*
D03*
X227000Y127000D02*
D03*
X217000D02*
D03*
X207000D02*
D03*
X147000Y229000D02*
D03*
Y219000D02*
D03*
Y209000D02*
D03*
X176500Y309500D02*
D03*
X186500D02*
D03*
X196500D02*
D03*
D84*
X217480Y94000D02*
D03*
X213739D02*
D03*
X210000D02*
D03*
X206456D02*
D03*
X202913D02*
D03*
X199369D02*
D03*
X195629D02*
D03*
X191889D02*
D03*
Y88488D02*
D03*
X195629D02*
D03*
X199369D02*
D03*
X202913D02*
D03*
X206456D02*
D03*
X210000D02*
D03*
X213739D02*
D03*
X217480D02*
D03*
D85*
X196810Y98843D02*
D03*
X212559D02*
D03*
X196810Y83646D02*
D03*
X212559D02*
D03*
D86*
X76496Y334752D02*
D03*
D87*
X11811Y11811D02*
D03*
X224410D02*
D03*
X11811Y381890D02*
D03*
X224410D02*
D03*
D88*
X226000Y279000D02*
D03*
Y160000D02*
D03*
D89*
X216000Y279000D02*
D03*
X206000D02*
D03*
X196000D02*
D03*
X186000D02*
D03*
X176000D02*
D03*
X166000D02*
D03*
X156000D02*
D03*
X216000Y160000D02*
D03*
X206000D02*
D03*
X196000D02*
D03*
X186000D02*
D03*
X176000D02*
D03*
X166000D02*
D03*
X156000D02*
D03*
D90*
X12126Y48000D02*
D03*
D91*
X20000D02*
D03*
D92*
X147000Y239000D02*
D03*
M02*
