G04*
G04 #@! TF.GenerationSoftware,Altium Limited,Altium Designer,22.2.1 (43)*
G04*
G04 Layer_Color=32768*
%FSLAX25Y25*%
%MOIN*%
G70*
G04*
G04 #@! TF.SameCoordinates,7FF29AC8-F327-4267-8616-DCF866A2A884*
G04*
G04*
G04 #@! TF.FilePolarity,Positive*
G04*
G01*
G75*
%ADD11C,0.01968*%
%ADD12C,0.01181*%
%ADD15C,0.00787*%
%ADD95C,0.00394*%
%ADD97C,0.03095*%
%ADD98C,0.00197*%
%ADD99C,0.00010*%
G36*
X28661Y56268D02*
X27480D01*
Y72016D01*
X4646D01*
Y56661D01*
X3858D01*
Y72803D01*
X28661D01*
Y56268D01*
D02*
G37*
G36*
X198500Y12000D02*
X197000D01*
Y19500D01*
X177500D01*
Y12000D01*
X175500D01*
Y22000D01*
X198500D01*
Y12000D01*
D02*
G37*
G36*
X199000Y4500D02*
X188311D01*
Y6500D01*
X196811D01*
Y9500D01*
X198811D01*
X199000Y4500D01*
D02*
G37*
G36*
X177500Y6500D02*
X186000D01*
Y4500D01*
X175500D01*
Y9500D01*
X177500D01*
Y6500D01*
D02*
G37*
G36*
X45498Y89091D02*
X44498D01*
Y79091D01*
X45498D01*
Y89091D01*
D02*
G37*
G36*
X210637Y244937D02*
X235834D01*
X236425Y244346D01*
Y174071D01*
X235637Y173284D01*
X211425D01*
Y174071D01*
X235637D01*
Y244150D01*
X210834D01*
X210637D01*
Y244937D01*
D02*
G37*
G36*
X45542Y302631D02*
X49960D01*
Y301631D01*
X45542D01*
Y297157D01*
X44542D01*
Y301631D01*
X39960D01*
Y302631D01*
X44542D01*
Y307157D01*
X45542D01*
Y302631D01*
D02*
G37*
D11*
X214440Y247610D02*
X213948Y248462D01*
X212964D01*
X212472Y247610D01*
X212964Y246758D01*
X213948D01*
X214440Y247610D01*
X133632Y124037D02*
X133140Y124889D01*
X132156D01*
X131664Y124037D01*
X132156Y123185D01*
X133140D01*
X133632Y124037D01*
D12*
X147291Y29801D02*
X146700Y30391D01*
X146109Y29801D01*
X146700Y29210D01*
X147291Y29801D01*
X91221Y24922D02*
X90630Y25512D01*
X90039Y24922D01*
X90630Y24330D01*
X91221Y24922D01*
X140221Y323422D02*
X139630Y324012D01*
X139039Y323422D01*
X139630Y322831D01*
X140221Y323422D01*
D15*
X194725Y37748D02*
X193937D01*
X194725D01*
X123394Y87000D02*
X122606D01*
X123394D01*
D95*
X228031Y68000D02*
X231968D01*
X230000Y66031D02*
Y69968D01*
X219480Y61130D02*
Y64870D01*
X217610Y63000D02*
X221351D01*
X204610Y74000D02*
X208350D01*
X206480Y72130D02*
Y75870D01*
X196610Y74000D02*
X200350D01*
X198480Y72130D02*
Y75870D01*
X192449Y106000D02*
X196386D01*
X194024Y104032D02*
Y107968D01*
X207118Y106000D02*
X211055D01*
X209480Y104032D02*
Y107968D01*
X228480Y89425D02*
Y93362D01*
X226512Y91000D02*
X230449D01*
X200000Y266130D02*
Y269870D01*
X198130Y268000D02*
X201870D01*
X208441Y147130D02*
Y150870D01*
X206571Y149000D02*
X210311D01*
X213441Y140130D02*
Y143870D01*
X211571Y142000D02*
X215311D01*
X148000Y193689D02*
Y197429D01*
X146130Y195559D02*
X149870D01*
X146031Y180000D02*
X149969D01*
X148000Y178032D02*
Y181968D01*
X211972Y255500D02*
X215713D01*
X213843Y253630D02*
Y257370D01*
X196000Y143689D02*
Y147429D01*
X194130Y145559D02*
X197870D01*
X183130Y146000D02*
X186870D01*
X185000Y144130D02*
Y147870D01*
X202500Y256130D02*
Y259870D01*
X200630Y258000D02*
X204370D01*
X211972Y263500D02*
X215713D01*
X213843Y261630D02*
Y265370D01*
X127032Y318500D02*
X130968D01*
X129000Y316531D02*
Y320468D01*
X143000Y52130D02*
Y55870D01*
X141130Y54000D02*
X144870D01*
X79130Y19658D02*
X82870D01*
X81000Y17787D02*
Y21528D01*
X193032Y47000D02*
X196968D01*
X195000Y45031D02*
Y48968D01*
X153130Y33000D02*
X156870D01*
X155000Y31130D02*
Y34870D01*
X162031Y47000D02*
X165969D01*
X164000Y45031D02*
Y48968D01*
X128657Y52130D02*
Y55870D01*
X126787Y54000D02*
X130528D01*
X129630Y9500D02*
X133370D01*
X131500Y7630D02*
Y11370D01*
X89130Y8000D02*
X92870D01*
X91000Y6130D02*
Y9870D01*
X210000Y289130D02*
Y292870D01*
X208130Y291000D02*
X211870D01*
X180500Y318130D02*
Y321870D01*
X178630Y320000D02*
X182370D01*
X136130Y137343D02*
X139870D01*
X138000Y135472D02*
Y139213D01*
X136130Y124000D02*
X139870D01*
X138000Y122130D02*
Y125870D01*
X129130Y73500D02*
X132870D01*
X131000Y71630D02*
Y75370D01*
X138000Y80130D02*
Y83870D01*
X136130Y82000D02*
X139870D01*
X116571Y74000D02*
X120311D01*
X118441Y72130D02*
Y75870D01*
X95000Y31032D02*
Y34969D01*
X93032Y33000D02*
X96969D01*
X136130Y89000D02*
X139870D01*
X138000Y87130D02*
Y90870D01*
X142000Y7898D02*
Y11835D01*
X140032Y9866D02*
X143968D01*
X162130Y10500D02*
X165870D01*
X164000Y8630D02*
Y12370D01*
X152032Y10000D02*
X155968D01*
X154000Y8032D02*
Y11969D01*
X110000Y105032D02*
Y108968D01*
X108031Y107000D02*
X111969D01*
X141000Y105032D02*
Y108968D01*
X139032Y107000D02*
X142968D01*
X113000Y82787D02*
Y86528D01*
X111130Y84658D02*
X114870D01*
X219342Y339130D02*
Y342870D01*
X217472Y341000D02*
X221213D01*
X224000Y289130D02*
Y292870D01*
X222130Y291000D02*
X225870D01*
D97*
X78043Y334752D02*
X77748Y335661D01*
X76974Y336223D01*
X76018D01*
X75244Y335661D01*
X74949Y334752D01*
X75244Y333843D01*
X76018Y333281D01*
X76974D01*
X77748Y333843D01*
X78043Y334752D01*
D98*
X233740Y60500D02*
Y75500D01*
X226260Y60500D02*
Y75500D01*
X233740D01*
X226260Y60500D02*
X233740D01*
X214165Y65953D02*
X224795D01*
X214165Y60047D02*
X224795D01*
X214165D02*
Y65953D01*
X224795Y60047D02*
Y65953D01*
X209433Y68685D02*
Y79315D01*
X203528Y68685D02*
Y79315D01*
X209433D01*
X203528Y68685D02*
X209433D01*
X201433D02*
Y79315D01*
X195528Y68685D02*
Y79315D01*
X201433D01*
X195528Y68685D02*
X201433D01*
X187701Y103638D02*
Y108362D01*
X200346Y103638D02*
Y108362D01*
X187701D02*
X200346D01*
X187701Y103638D02*
X200346D01*
X215803D02*
Y108362D01*
X203158Y103638D02*
Y108362D01*
Y103638D02*
X215803D01*
X203158Y108362D02*
X215803D01*
X226118Y84677D02*
X230843D01*
X226118Y97323D02*
X230843D01*
X226118Y84677D02*
Y97323D01*
X230843Y84677D02*
Y97323D01*
X194685Y265047D02*
X205315D01*
X194685Y270953D02*
X205315D01*
Y265047D02*
Y270953D01*
X194685Y265047D02*
Y270953D01*
X203126Y146047D02*
X213756D01*
X203126Y151953D02*
X213756D01*
Y146047D02*
Y151953D01*
X203126Y146047D02*
Y151953D01*
X208126Y144953D02*
X218756D01*
X208126Y139047D02*
X218756D01*
X208126D02*
Y144953D01*
X218756Y139047D02*
Y144953D01*
X145047Y190244D02*
X150953D01*
X145047Y200874D02*
X150953D01*
X145047Y190244D02*
Y200874D01*
X150953Y190244D02*
Y200874D01*
X144260Y172500D02*
Y187500D01*
X151740Y172500D02*
Y187500D01*
X144260Y172500D02*
X151740D01*
X144260Y187500D02*
X151740D01*
X219158Y252547D02*
Y258453D01*
X208528Y252547D02*
Y258453D01*
Y252547D02*
X219158D01*
X208528Y258453D02*
X219158D01*
X193047Y150874D02*
X198953D01*
X193047Y140244D02*
X198953D01*
Y150874D01*
X193047Y140244D02*
Y150874D01*
X182047Y140685D02*
Y151315D01*
X187953Y140685D02*
Y151315D01*
X182047Y140685D02*
X187953D01*
X182047Y151315D02*
X187953D01*
X199547Y252685D02*
X205453D01*
X199547Y263315D02*
X205453D01*
X199547Y252685D02*
Y263315D01*
X205453Y252685D02*
Y263315D01*
X219158Y260547D02*
Y266453D01*
X208528Y260547D02*
Y266453D01*
Y260547D02*
X219158D01*
X208528Y266453D02*
X219158D01*
X133331Y309642D02*
Y327358D01*
X124669Y309642D02*
Y327358D01*
X133331D01*
X124669Y309642D02*
X133331D01*
X137685Y51047D02*
X148315D01*
X137685Y56953D02*
X148315D01*
Y51047D02*
Y56953D01*
X137685Y51047D02*
Y56953D01*
X83953Y14343D02*
Y24972D01*
X78047Y14343D02*
Y24972D01*
X83953D01*
X78047Y14343D02*
X83953D01*
X209000Y40110D02*
Y53890D01*
X181000Y40110D02*
Y53890D01*
Y40110D02*
X209000D01*
X181000Y53890D02*
X209000D01*
X157953Y27685D02*
Y38315D01*
X152047Y27685D02*
Y38315D01*
X157953D01*
X152047Y27685D02*
X157953D01*
X172858Y42669D02*
Y51331D01*
X155142Y42669D02*
Y51331D01*
Y42669D02*
X172858D01*
X155142Y51331D02*
X172858D01*
X123343Y56953D02*
X133972D01*
X123343Y51047D02*
X133972D01*
X123343D02*
Y56953D01*
X133972Y51047D02*
Y56953D01*
X134453Y4185D02*
Y14815D01*
X128547Y4185D02*
Y14815D01*
X134453D01*
X128547Y4185D02*
X134453D01*
X88047Y2685D02*
Y13315D01*
X93953Y2685D02*
Y13315D01*
X88047Y2685D02*
X93953D01*
X88047Y13315D02*
X93953D01*
X204685Y288047D02*
X215315D01*
X204685Y293953D02*
X215315D01*
Y288047D02*
Y293953D01*
X204685Y288047D02*
Y293953D01*
X175185Y317047D02*
X185815D01*
X175185Y322953D02*
X185815D01*
Y317047D02*
Y322953D01*
X175185Y317047D02*
Y322953D01*
X140953Y132028D02*
Y142657D01*
X135047Y132028D02*
Y142657D01*
X140953D01*
X135047Y132028D02*
X140953D01*
X135047Y118685D02*
Y129315D01*
X140953Y118685D02*
Y129315D01*
X135047Y118685D02*
X140953D01*
X135047Y129315D02*
X140953D01*
X136315Y70547D02*
Y76453D01*
X125685Y70547D02*
Y76453D01*
Y70547D02*
X136315D01*
X125685Y76453D02*
X136315D01*
X132685Y84953D02*
X143315D01*
X132685Y79047D02*
X143315D01*
X132685D02*
Y84953D01*
X143315Y79047D02*
Y84953D01*
X123756Y71047D02*
Y76953D01*
X113126Y71047D02*
Y76953D01*
Y71047D02*
X123756D01*
X113126Y76953D02*
X123756D01*
X86142Y37331D02*
X103858D01*
X86142Y28669D02*
X103858D01*
X86142D02*
Y37331D01*
X103858Y28669D02*
Y37331D01*
X132685Y86047D02*
Y91953D01*
X143315Y86047D02*
Y91953D01*
X132685D02*
X143315D01*
X132685Y86047D02*
X143315D01*
X138260Y17366D02*
X145740D01*
X138260Y2366D02*
X145740D01*
Y17366D01*
X138260Y2366D02*
Y17366D01*
X166953Y5185D02*
Y15815D01*
X161047Y5185D02*
Y15815D01*
X166953D01*
X161047Y5185D02*
X166953D01*
X150260Y2500D02*
Y17500D01*
X157740Y2500D02*
Y17500D01*
X150260Y2500D02*
X157740D01*
X150260Y17500D02*
X157740D01*
X96000Y100110D02*
X124000D01*
X96000Y113890D02*
X124000D01*
Y100110D02*
Y113890D01*
X96000Y100110D02*
Y113890D01*
X127000D02*
X155000D01*
X127000Y100110D02*
X155000D01*
X127000D02*
Y113890D01*
X155000Y100110D02*
Y113890D01*
X110047Y89972D02*
X115953D01*
X110047Y79343D02*
X115953D01*
Y89972D01*
X110047Y79343D02*
Y89972D01*
X214028Y343953D02*
X224658D01*
X214028Y338047D02*
X224658D01*
X214028D02*
Y343953D01*
X224658Y338047D02*
Y343953D01*
X218685Y293953D02*
X229315D01*
X218685Y288047D02*
X229315D01*
X218685D02*
Y293953D01*
X229315Y288047D02*
Y293953D01*
D99*
X219337Y326421D02*
X219339Y326423D01*
X219337Y305421D02*
X219339Y305423D01*
M02*
