G04*
G04 #@! TF.GenerationSoftware,Altium Limited,Altium Designer,22.2.1 (43)*
G04*
G04 Layer_Color=65535*
%FSLAX25Y25*%
%MOIN*%
G70*
G04*
G04 #@! TF.SameCoordinates,7FF29AC8-F327-4267-8616-DCF866A2A884*
G04*
G04*
G04 #@! TF.FilePolarity,Positive*
G04*
G01*
G75*
%ADD10C,0.01000*%
%ADD11C,0.01968*%
%ADD12C,0.01181*%
%ADD13C,0.00591*%
%ADD14C,0.00591*%
%ADD15C,0.00787*%
%ADD16C,0.00600*%
%ADD17R,0.00787X0.01862*%
%ADD18R,0.00701X0.02000*%
%ADD19R,0.01862X0.00787*%
%ADD20R,0.02000X0.00701*%
D10*
X51300Y303150D02*
X51222Y304135D01*
X50992Y305097D01*
X50613Y306010D01*
X50097Y306853D01*
X49455Y307605D01*
X48703Y308247D01*
X47860Y308763D01*
X46947Y309142D01*
X45985Y309372D01*
X45000Y309450D01*
X44014Y309372D01*
X43053Y309142D01*
X42140Y308763D01*
X41297Y308247D01*
X40545Y307605D01*
X39903Y306853D01*
X39387Y306010D01*
X39008Y305097D01*
X38778Y304135D01*
X38700Y303150D01*
X38778Y302165D01*
X39008Y301203D01*
X39387Y300290D01*
X39903Y299447D01*
X40545Y298695D01*
X41297Y298053D01*
X42140Y297537D01*
X43053Y297158D01*
X44014Y296928D01*
X45000Y296850D01*
X45985Y296928D01*
X46947Y297158D01*
X47860Y297537D01*
X48703Y298053D01*
X49455Y298695D01*
X50097Y299447D01*
X50613Y300290D01*
X50992Y301203D01*
X51222Y302165D01*
X51300Y303150D01*
Y84150D02*
X51222Y85136D01*
X50992Y86097D01*
X50613Y87010D01*
X50097Y87853D01*
X49455Y88605D01*
X48703Y89247D01*
X47860Y89763D01*
X46947Y90142D01*
X45985Y90372D01*
X45000Y90450D01*
X44014Y90372D01*
X43053Y90142D01*
X42140Y89763D01*
X41297Y89247D01*
X40545Y88605D01*
X39903Y87853D01*
X39387Y87010D01*
X39008Y86097D01*
X38778Y85136D01*
X38700Y84150D01*
X38778Y83165D01*
X39008Y82203D01*
X39387Y81290D01*
X39903Y80447D01*
X40545Y79695D01*
X41297Y79053D01*
X42140Y78537D01*
X43053Y78158D01*
X44014Y77928D01*
X45000Y77850D01*
X45985Y77928D01*
X46947Y78158D01*
X47860Y78537D01*
X48703Y79053D01*
X49455Y79695D01*
X50097Y80447D01*
X50613Y81290D01*
X50992Y82203D01*
X51222Y83165D01*
X51300Y84150D01*
X136901Y28160D02*
X136687Y29093D01*
X136090Y29841D01*
X135228Y30255D01*
X134271Y30255D01*
X133409Y29839D01*
X132813Y29091D01*
X132601Y28158D01*
X222338Y325000D02*
X222176Y325974D01*
X221705Y326842D01*
X220979Y327511D01*
X220075Y327908D01*
X219090Y327989D01*
X218133Y327747D01*
X217306Y327207D01*
X216700Y326428D01*
X216379Y325494D01*
Y324506D01*
X216700Y323572D01*
X217306Y322793D01*
X218133Y322252D01*
X219090Y322010D01*
X220075Y322092D01*
X220979Y322488D01*
X221705Y323157D01*
X222176Y324026D01*
X222338Y325000D01*
Y304000D02*
X222176Y304974D01*
X221705Y305842D01*
X220979Y306511D01*
X220075Y306908D01*
X219090Y306989D01*
X218133Y306747D01*
X217306Y306207D01*
X216700Y305428D01*
X216379Y304493D01*
Y303506D01*
X216700Y302572D01*
X217306Y301793D01*
X218133Y301252D01*
X219090Y301010D01*
X220075Y301092D01*
X220979Y301488D01*
X221705Y302157D01*
X222176Y303026D01*
X222338Y304000D01*
X175500Y12000D02*
X177500D01*
Y19500D01*
X197000D01*
Y12000D02*
Y19500D01*
Y12000D02*
X198500D01*
X196811Y9500D02*
X198811D01*
X196811Y6500D02*
Y9500D01*
X188311Y6500D02*
X196811D01*
X188311Y4500D02*
Y6500D01*
X175500Y9500D02*
X177500D01*
Y6500D02*
Y9500D01*
Y6500D02*
X186000D01*
Y4500D02*
Y6500D01*
X175189Y22024D02*
X198811D01*
Y4307D02*
Y22024D01*
X175189Y4307D02*
X198811D01*
X175189D02*
Y22024D01*
X133093Y373000D02*
X163000D01*
Y363000D02*
Y373000D01*
X123000Y363000D02*
X163000D01*
X123000D02*
Y373000D01*
X133093D01*
Y363000D02*
Y373000D01*
X45000Y298650D02*
Y307650D01*
X40500Y303150D02*
X49500D01*
X45000Y79650D02*
Y88650D01*
X4250Y345400D02*
X85750D01*
Y41900D02*
Y345400D01*
X4250Y41900D02*
X85750D01*
X4250D02*
Y345400D01*
X202093Y122000D02*
Y132000D01*
X192000D02*
X202093D01*
X192000Y122000D02*
Y132000D01*
Y122000D02*
X232000D01*
Y132000D01*
X202093D02*
X232000D01*
X151000Y274000D02*
Y284000D01*
X231000Y274000D02*
Y284000D01*
X151000D02*
X231000D01*
X151000Y274000D02*
X231000D01*
X220907D02*
Y284000D01*
X151000Y155000D02*
Y165000D01*
X231000Y155000D02*
Y165000D01*
X151000D02*
X231000D01*
X151000Y155000D02*
X231000D01*
X220907D02*
Y165000D01*
X136901Y28158D02*
X142678D01*
X127324D02*
X132601D01*
X127324D02*
Y47843D01*
X142678Y28158D02*
Y47843D01*
X127324D02*
X142678D01*
X23863Y48787D02*
X23937D01*
X15989D02*
X16137D01*
X8189D02*
X8263D01*
X20000Y55480D02*
Y72016D01*
X12126Y55480D02*
X20000D01*
X12126D02*
Y72409D01*
X23937Y48787D02*
Y63748D01*
X21575D02*
X23937D01*
X21575Y48787D02*
Y63748D01*
X10551Y48787D02*
Y63748D01*
X8189D02*
X10551D01*
X8189Y48787D02*
Y63748D01*
X23937Y42488D02*
Y48787D01*
Y42488D02*
X27874D01*
X8189Y42488D02*
Y48787D01*
X4252Y42488D02*
X8189D01*
X27874D02*
Y72248D01*
X4252Y42488D02*
Y72409D01*
X27874D01*
X152000Y204000D02*
Y233907D01*
X142000Y204000D02*
X152000D01*
X142000D02*
Y244000D01*
X152000D01*
Y233907D02*
Y244000D01*
X142000Y233907D02*
X152000D01*
X171593Y314500D02*
X201500D01*
Y304500D02*
Y314500D01*
X161500Y304500D02*
X201500D01*
X161500D02*
Y314500D01*
X171593D01*
Y304500D02*
Y314500D01*
X98500Y18500D02*
Y21500D01*
X93337Y14500D02*
X96663D01*
X92250Y26000D02*
X97750Y26000D01*
X124000Y88500D02*
X128000D01*
X124000Y79500D02*
X128000D01*
X141250Y324500D02*
X146750Y324500D01*
X142337Y313000D02*
X145663D01*
X147500Y317000D02*
Y320000D01*
X227212Y329453D02*
Y330905D01*
X211464D02*
X227212D01*
X211464Y319094D02*
Y320546D01*
Y319094D02*
X227212D01*
Y320546D01*
X211464Y329453D02*
Y330905D01*
X227212Y308453D02*
Y309905D01*
X211464D02*
X227212D01*
X211464Y298094D02*
Y299546D01*
Y298094D02*
X227212D01*
Y299546D01*
X211464Y308453D02*
Y309905D01*
X205440Y23312D02*
X204784Y23968D01*
X203473D01*
X202817Y23312D01*
Y22656D01*
X203473Y22000D01*
X204784D01*
X205440Y21344D01*
Y20688D01*
X204784Y20032D01*
X203473D01*
X202817Y20688D01*
X208720Y23968D02*
X207408D01*
X206752Y23312D01*
Y20688D01*
X207408Y20032D01*
X208720D01*
X209376Y20688D01*
Y23312D01*
X208720Y23968D01*
X210688D02*
Y20032D01*
X213312D01*
X214624D02*
Y22656D01*
X215936Y23968D01*
X217248Y22656D01*
Y20032D01*
Y22000D01*
X214624D01*
X218560Y20032D02*
Y23968D01*
X220527D01*
X221183Y23312D01*
Y22000D01*
X220527Y21344D01*
X218560D01*
X219871D02*
X221183Y20032D01*
X125961Y360968D02*
Y357688D01*
X126617Y357032D01*
X127929D01*
X128585Y357688D01*
Y360968D01*
X129897Y357032D02*
X131209D01*
X130553D01*
Y360968D01*
X129897D01*
X133833Y360312D02*
Y359656D01*
X133177D01*
X134489D01*
X133833D01*
Y357688D01*
X134489Y357032D01*
X136457Y359656D02*
Y357032D01*
Y358344D01*
X137112Y359000D01*
X137768Y359656D01*
X138424D01*
X141048D02*
X142360D01*
X143016Y359000D01*
Y357032D01*
X141048D01*
X140392Y357688D01*
X141048Y358344D01*
X143016D01*
X144328Y357032D02*
X146296D01*
X146952Y357688D01*
X146296Y358344D01*
X144984D01*
X144328Y359000D01*
X144984Y359656D01*
X146952D01*
X148920Y357032D02*
X150232D01*
X150888Y357688D01*
Y359000D01*
X150232Y359656D01*
X148920D01*
X148264Y359000D01*
Y357688D01*
X148920Y357032D01*
X152199D02*
Y359656D01*
X154167D01*
X154823Y359000D01*
Y357032D01*
X156135D02*
X157447D01*
X156791D01*
Y359656D01*
X156135D01*
X162039D02*
X160071D01*
X159415Y359000D01*
Y357688D01*
X160071Y357032D01*
X162039D01*
X157000Y376312D02*
Y380248D01*
X158968D01*
X159624Y379592D01*
Y378280D01*
X158968Y377624D01*
X157000D01*
X160936Y376312D02*
X162248D01*
X161592D01*
Y378936D01*
X160936D01*
X166839Y380248D02*
Y376312D01*
X164872D01*
X164216Y376968D01*
Y378280D01*
X164872Y378936D01*
X166839D01*
X169463Y375000D02*
X170119D01*
X170775Y375656D01*
Y378936D01*
X168807D01*
X168151Y378280D01*
Y376968D01*
X168807Y376312D01*
X170775D01*
X174055D02*
X172743D01*
X172087Y376968D01*
Y378280D01*
X172743Y378936D01*
X174055D01*
X174711Y378280D01*
Y377624D01*
X172087D01*
X176679Y376312D02*
X177991D01*
X178647Y376968D01*
Y378280D01*
X177991Y378936D01*
X176679D01*
X176023Y378280D01*
Y376968D01*
X176679Y376312D01*
X179958D02*
Y378936D01*
X181926D01*
X182582Y378280D01*
Y376312D01*
X190454Y379592D02*
X189798Y380248D01*
X188486D01*
X187830Y379592D01*
Y378936D01*
X188486Y378280D01*
X189798D01*
X190454Y377624D01*
Y376968D01*
X189798Y376312D01*
X188486D01*
X187830Y376968D01*
X191766Y378936D02*
Y376968D01*
X192422Y376312D01*
X194389D01*
Y375656D01*
X193734Y375000D01*
X193078D01*
X194389Y376312D02*
Y378936D01*
X195701Y376312D02*
X197669D01*
X198325Y376968D01*
X197669Y377624D01*
X196357D01*
X195701Y378280D01*
X196357Y378936D01*
X198325D01*
X200293Y379592D02*
Y378936D01*
X199637D01*
X200949D01*
X200293D01*
Y376968D01*
X200949Y376312D01*
X204885D02*
X203573D01*
X202917Y376968D01*
Y378280D01*
X203573Y378936D01*
X204885D01*
X205541Y378280D01*
Y377624D01*
X202917D01*
X206853Y376312D02*
Y378936D01*
X207509D01*
X208165Y378280D01*
Y376312D01*
Y378280D01*
X208821Y378936D01*
X209476Y378280D01*
Y376312D01*
X210788D02*
X212756D01*
X213412Y376968D01*
X212756Y377624D01*
X211444D01*
X210788Y378280D01*
X211444Y378936D01*
X213412D01*
X60000Y385936D02*
Y382656D01*
X60656Y382000D01*
X61968D01*
X62624Y382656D01*
Y385936D01*
X63936Y382000D02*
X65248D01*
X64592D01*
Y385936D01*
X63936D01*
X67871Y385280D02*
Y384624D01*
X67216D01*
X68527D01*
X67871D01*
Y382656D01*
X68527Y382000D01*
X70495Y384624D02*
Y382000D01*
Y383312D01*
X71151Y383968D01*
X71807Y384624D01*
X72463D01*
X75087D02*
X76399D01*
X77055Y383968D01*
Y382000D01*
X75087D01*
X74431Y382656D01*
X75087Y383312D01*
X77055D01*
X78367Y382000D02*
X80335D01*
X80991Y382656D01*
X80335Y383312D01*
X79023D01*
X78367Y383968D01*
X79023Y384624D01*
X80991D01*
X82959Y382000D02*
X84270D01*
X84926Y382656D01*
Y383968D01*
X84270Y384624D01*
X82959D01*
X82302Y383968D01*
Y382656D01*
X82959Y382000D01*
X86238D02*
Y384624D01*
X88206D01*
X88862Y383968D01*
Y382000D01*
X90174D02*
X91486D01*
X90830D01*
Y384624D01*
X90174D01*
X96078D02*
X94110D01*
X93454Y383968D01*
Y382656D01*
X94110Y382000D01*
X96078D01*
X101325Y385936D02*
X103949D01*
X102637D01*
Y382000D01*
X105917Y384624D02*
X107229D01*
X107885Y383968D01*
Y382000D01*
X105917D01*
X105261Y382656D01*
X105917Y383312D01*
X107885D01*
X109197Y382000D02*
Y384624D01*
X111165D01*
X111821Y383968D01*
Y382000D01*
X113133D02*
Y385936D01*
Y383312D02*
X115100Y384624D01*
X113133Y383312D02*
X115100Y382000D01*
X121004D02*
Y385936D01*
X122316Y384624D01*
X123628Y385936D01*
Y382000D01*
X125596D02*
X126908D01*
X127564Y382656D01*
Y383968D01*
X126908Y384624D01*
X125596D01*
X124940Y383968D01*
Y382656D01*
X125596Y382000D01*
X128875D02*
Y384624D01*
X130843D01*
X131499Y383968D01*
Y382000D01*
X132811D02*
X134123D01*
X133467D01*
Y384624D01*
X132811D01*
X136747Y385280D02*
Y384624D01*
X136091D01*
X137403D01*
X136747D01*
Y382656D01*
X137403Y382000D01*
X140027D02*
X141339D01*
X141995Y382656D01*
Y383968D01*
X141339Y384624D01*
X140027D01*
X139371Y383968D01*
Y382656D01*
X140027Y382000D01*
X143307Y384624D02*
Y382000D01*
Y383312D01*
X143962Y383968D01*
X144618Y384624D01*
X145274D01*
X151178Y382000D02*
Y385936D01*
X153146D01*
X153802Y385280D01*
Y383968D01*
X153146Y383312D01*
X151178D01*
X157738Y385280D02*
X157082Y385936D01*
X155770D01*
X155114Y385280D01*
Y382656D01*
X155770Y382000D01*
X157082D01*
X157738Y382656D01*
X159049Y385936D02*
Y382000D01*
X161017D01*
X161673Y382656D01*
Y383312D01*
X161017Y383968D01*
X159049D01*
X161017D01*
X161673Y384624D01*
Y385280D01*
X161017Y385936D01*
X159049D01*
X166921D02*
Y383312D01*
X168233Y382000D01*
X169545Y383312D01*
Y385936D01*
X170857Y382000D02*
X172169D01*
X171513D01*
Y385936D01*
X170857Y385280D01*
X174136Y382000D02*
Y382656D01*
X174792D01*
Y382000D01*
X174136D01*
X177416Y385280D02*
X178072Y385936D01*
X179384D01*
X180040Y385280D01*
Y382656D01*
X179384Y382000D01*
X178072D01*
X177416Y382656D01*
Y385280D01*
X4752Y39968D02*
Y36032D01*
X6720D01*
X7376Y36688D01*
Y37344D01*
X6720Y38000D01*
X4752D01*
X6720D01*
X7376Y38656D01*
Y39312D01*
X6720Y39968D01*
X4752D01*
X8688Y36032D02*
Y38656D01*
X10000Y39968D01*
X11312Y38656D01*
Y36032D01*
Y38000D01*
X8688D01*
X12624Y39968D02*
X15248D01*
X13936D01*
Y36032D01*
X207080Y119968D02*
X208392D01*
X207736D01*
Y116032D01*
X207080D01*
X208392D01*
X212984D02*
X210360D01*
X212984Y118656D01*
Y119312D01*
X212328Y119968D01*
X211016D01*
X210360Y119312D01*
X216920D02*
X216264Y119968D01*
X214952D01*
X214296Y119312D01*
Y116688D01*
X214952Y116032D01*
X216264D01*
X216920Y116688D01*
X173784Y300124D02*
X176408D01*
X175096D01*
Y296188D01*
X179688D02*
X178376D01*
X177720Y296844D01*
Y298156D01*
X178376Y298812D01*
X179688D01*
X180344Y298156D01*
Y297500D01*
X177720D01*
X181656Y296188D02*
Y298812D01*
X182312D01*
X182968Y298156D01*
Y296188D01*
Y298156D01*
X183624Y298812D01*
X184280Y298156D01*
Y296188D01*
X185592Y294876D02*
Y298812D01*
X187560D01*
X188215Y298156D01*
Y296844D01*
X187560Y296188D01*
X185592D01*
D11*
X214440Y247610D02*
X213948Y248462D01*
X212964D01*
X212472Y247610D01*
X212964Y246758D01*
X213948D01*
X214440Y247610D01*
D12*
X144601Y27400D02*
X145194Y26815D01*
X145782Y27405D01*
X145194Y27996D01*
X144601Y27410D01*
D13*
X122948Y88724D02*
X122358D01*
X122948D01*
X185984Y83764D02*
X192171D01*
X185984D02*
Y98724D01*
X201450Y83764D02*
X207919D01*
X217198Y98724D02*
X223385D01*
Y83764D02*
Y98724D01*
X217198Y83764D02*
X223385D01*
X201450Y98724D02*
X207919D01*
X185984D02*
X192171D01*
D14*
X230000Y68000D02*
X231000Y67000D01*
X229000D02*
X230000Y68000D01*
X229000Y67000D02*
X231000D01*
X230000Y68000D02*
Y69000D01*
X226457Y68000D02*
X233543D01*
X231000Y75500D02*
X233543D01*
Y60000D02*
Y75500D01*
X232756Y60000D02*
X233543D01*
X226457Y75500D02*
X229000D01*
X226457Y60000D02*
Y75500D01*
Y60000D02*
X227244D01*
X231000Y75500D02*
Y76000D01*
X233543D01*
Y75500D02*
Y76000D01*
X226457Y75500D02*
Y76000D01*
X229000D01*
Y75500D02*
Y76000D01*
X224480Y65000D02*
Y65756D01*
X214480D02*
X224480D01*
X214480Y65000D02*
Y65756D01*
Y60244D02*
Y61000D01*
Y60244D02*
X224480D01*
Y61000D01*
X219480Y60244D02*
Y65756D01*
X208480Y69000D02*
X209236D01*
Y79000D01*
X208480D02*
X209236D01*
X203725D02*
X204480D01*
X203725Y69000D02*
Y79000D01*
Y69000D02*
X204480D01*
X203725Y74000D02*
X209236D01*
X200480Y69000D02*
X201236D01*
Y79000D01*
X200480D02*
X201236D01*
X195724D02*
X196480D01*
X195724Y69000D02*
Y79000D01*
Y69000D02*
X196480D01*
X195724Y74000D02*
X201236D01*
X187724Y103500D02*
Y104500D01*
Y103500D02*
X200524D01*
X200323D02*
Y105500D01*
X201024D01*
Y103500D02*
Y105500D01*
X200323Y103500D02*
X201024D01*
X200323Y108500D02*
X201024D01*
Y106500D02*
Y108500D01*
X200323Y106500D02*
X201024D01*
X200323D02*
Y108500D01*
X187724D02*
X200524D01*
X187724Y107500D02*
Y108500D01*
X215780Y107500D02*
Y108500D01*
X202980D02*
X215780D01*
X203181Y106500D02*
Y108500D01*
X202480Y106500D02*
X203181D01*
X202480D02*
Y108500D01*
X203181D01*
X202480Y103500D02*
X203181D01*
X202480D02*
Y105500D01*
X203181D01*
Y103500D02*
Y105500D01*
X202980Y103500D02*
X215780D01*
Y104500D01*
X229980Y84701D02*
X230980D01*
Y97500D01*
X228980Y97299D02*
X230980D01*
X228980D02*
Y98000D01*
X230980D01*
Y97299D02*
Y98000D01*
X225980Y97299D02*
Y98000D01*
X227980D01*
Y97299D02*
Y98000D01*
X225980Y97299D02*
X227980D01*
X225980Y84701D02*
Y97500D01*
Y84701D02*
X226980D01*
X200000Y265244D02*
Y270756D01*
X194488Y269575D02*
Y270756D01*
X205512D01*
Y269575D02*
Y270756D01*
Y265244D02*
Y266425D01*
X194488Y265244D02*
X205512D01*
X194488D02*
Y266425D01*
X203441Y146244D02*
Y147000D01*
Y146244D02*
X213441D01*
Y147000D01*
Y151000D02*
Y151756D01*
X203441D02*
X213441D01*
X203441Y151000D02*
Y151756D01*
X208441Y146244D02*
Y151756D01*
X218441Y144000D02*
Y144756D01*
X208441D02*
X218441D01*
X208441Y144000D02*
Y144756D01*
Y139244D02*
Y140000D01*
Y139244D02*
X218441D01*
Y140000D01*
X213441Y139244D02*
Y144756D01*
X145244Y195559D02*
X150756D01*
X145244Y190559D02*
X146000D01*
X145244D02*
Y200559D01*
X146000D01*
X150000D02*
X150756D01*
Y190559D02*
Y200559D01*
X150000Y190559D02*
X150756D01*
X147000Y181000D02*
X148000Y180000D01*
X149000Y181000D01*
X147000D02*
X149000D01*
X148000Y179000D02*
Y180000D01*
X144457D02*
X151543D01*
X144457Y172500D02*
X147000D01*
X144457D02*
Y188000D01*
X145244D01*
X149000Y172500D02*
X151543D01*
Y188000D01*
X150756D02*
X151543D01*
X147000Y172000D02*
Y172500D01*
X144457Y172000D02*
X147000D01*
X144457D02*
Y172500D01*
X151543Y172000D02*
Y172500D01*
X149000Y172000D02*
X151543D01*
X149000D02*
Y172500D01*
X219354Y257075D02*
Y258256D01*
X208331D02*
X219354D01*
X208331Y257075D02*
Y258256D01*
Y252744D02*
Y253925D01*
Y252744D02*
X219354D01*
Y253925D01*
X213843Y252744D02*
Y258256D01*
X193244Y145559D02*
X198756D01*
X198000Y150559D02*
X198756D01*
Y140559D02*
Y150559D01*
X198000Y140559D02*
X198756D01*
X193244D02*
X194000D01*
X193244D02*
Y150559D01*
X194000D01*
X182244Y151000D02*
X183000D01*
X182244Y141000D02*
Y151000D01*
Y141000D02*
X183000D01*
X187000D02*
X187756D01*
Y151000D01*
X187000D02*
X187756D01*
X182244Y146000D02*
X187756D01*
X199744Y258000D02*
X205256D01*
X199744Y253000D02*
X200500D01*
X199744D02*
Y263000D01*
X200500D01*
X204500D02*
X205256D01*
Y253000D02*
Y263000D01*
X204500Y253000D02*
X205256D01*
X219354Y265075D02*
Y266256D01*
X208331D02*
X219354D01*
X208331Y265075D02*
Y266256D01*
Y260744D02*
Y261925D01*
Y260744D02*
X219354D01*
Y261925D01*
X213843Y260744D02*
Y266256D01*
X143000Y51244D02*
Y56756D01*
X137488Y55575D02*
Y56756D01*
X148512D01*
Y55575D02*
Y56756D01*
Y51244D02*
Y52425D01*
X137488Y51244D02*
X148512D01*
X137488D02*
Y52425D01*
X78244Y19658D02*
X83756D01*
X78244Y14146D02*
X79425D01*
X78244D02*
Y25169D01*
X79425D01*
X82575D02*
X83756D01*
Y14146D02*
Y25169D01*
X82575Y14146D02*
X83756D01*
X157000Y28000D02*
X157756D01*
Y38000D01*
X157000D02*
X157756D01*
X152244D02*
X153000D01*
X152244Y28000D02*
Y38000D01*
Y28000D02*
X153000D01*
X152244Y33000D02*
X157756D01*
X128657Y51244D02*
Y56756D01*
X134169Y51244D02*
Y52425D01*
X123146Y51244D02*
X134169D01*
X123146D02*
Y52425D01*
Y55575D02*
Y56756D01*
X134169D01*
Y55575D02*
Y56756D01*
X133500Y4500D02*
X134256D01*
Y14500D01*
X133500D02*
X134256D01*
X128744D02*
X129500D01*
X128744Y4500D02*
Y14500D01*
Y4500D02*
X129500D01*
X128744Y9500D02*
X134256D01*
X88244Y13000D02*
X89000D01*
X88244Y3000D02*
Y13000D01*
Y3000D02*
X89000D01*
X93000D02*
X93756D01*
Y13000D01*
X93000D02*
X93756D01*
X88244Y8000D02*
X93756D01*
X205000Y288244D02*
Y289000D01*
Y288244D02*
X215000D01*
Y289000D01*
Y293000D02*
Y293756D01*
X205000D02*
X215000D01*
X205000Y293000D02*
Y293756D01*
X210000Y288244D02*
Y293756D01*
X175500Y317244D02*
Y318000D01*
Y317244D02*
X185500D01*
Y318000D01*
Y322000D02*
Y322756D01*
X175500D02*
X185500D01*
X175500Y322000D02*
Y322756D01*
X180500Y317244D02*
Y322756D01*
X135244Y137343D02*
X140756D01*
X135244Y131831D02*
X136425D01*
X135244D02*
Y142854D01*
X136425D01*
X139575D02*
X140756D01*
Y131831D02*
Y142854D01*
X139575Y131831D02*
X140756D01*
X135244Y124000D02*
X140756D01*
X139575Y129512D02*
X140756D01*
Y118488D02*
Y129512D01*
X139575Y118488D02*
X140756D01*
X135244D02*
X136425D01*
X135244D02*
Y129512D01*
X136425D01*
X131000Y70744D02*
Y76256D01*
X136000Y70744D02*
Y71500D01*
X126000Y70744D02*
X136000D01*
X126000D02*
Y71500D01*
Y75500D02*
Y76256D01*
X136000D01*
Y75500D02*
Y76256D01*
X138000Y79244D02*
Y84756D01*
X143512Y79244D02*
Y80425D01*
X132488Y79244D02*
X143512D01*
X132488D02*
Y80425D01*
Y83575D02*
Y84756D01*
X143512D01*
Y83575D02*
Y84756D01*
X118441Y71244D02*
Y76756D01*
X123441Y71244D02*
Y72000D01*
X113441Y71244D02*
X123441D01*
X113441D02*
Y72000D01*
Y76000D02*
Y76756D01*
X123441D01*
Y76000D02*
Y76756D01*
X138000Y86244D02*
Y91756D01*
X133000Y91000D02*
Y91756D01*
X143000D01*
Y91000D02*
Y91756D01*
Y86244D02*
Y87000D01*
X133000Y86244D02*
X143000D01*
X133000D02*
Y87000D01*
X141000Y10866D02*
X142000Y9866D01*
X143000Y10866D01*
X141000D02*
X143000D01*
X142000Y8866D02*
Y9866D01*
X143000Y1866D02*
Y2366D01*
Y1866D02*
X145543D01*
Y2366D01*
X138457Y1866D02*
Y2366D01*
Y1866D02*
X141000D01*
Y2366D01*
X144756Y17866D02*
X145543D01*
Y2366D02*
Y17866D01*
X143000Y2366D02*
X145543D01*
X138457Y17866D02*
X139244D01*
X138457Y2366D02*
Y17866D01*
Y2366D02*
X141000D01*
X138457Y9866D02*
X145543D01*
X166000Y5500D02*
X166756D01*
Y15500D01*
X166000D02*
X166756D01*
X161244D02*
X162000D01*
X161244Y5500D02*
Y15500D01*
Y5500D02*
X162000D01*
X161244Y10500D02*
X166756D01*
X153000Y11000D02*
X154000Y10000D01*
X155000Y11000D01*
X153000D02*
X155000D01*
X154000Y9000D02*
Y10000D01*
X150457D02*
X157543D01*
X150457Y2500D02*
X153000D01*
X150457D02*
Y18000D01*
X151244D01*
X155000Y2500D02*
X157543D01*
Y18000D01*
X156756D02*
X157543D01*
X153000Y2000D02*
Y2500D01*
X150457Y2000D02*
X153000D01*
X150457D02*
Y2500D01*
X157543Y2000D02*
Y2500D01*
X155000Y2000D02*
X157543D01*
X155000D02*
Y2500D01*
X110244Y90169D02*
X111425D01*
X110244Y79146D02*
Y90169D01*
Y79146D02*
X111425D01*
X114575D02*
X115756D01*
Y90169D01*
X114575D02*
X115756D01*
X110244Y84658D02*
X115756D01*
X219342Y338244D02*
Y343756D01*
X224854Y338244D02*
Y339425D01*
X213831Y338244D02*
X224854D01*
X213831D02*
Y339425D01*
Y342575D02*
Y343756D01*
X224854D01*
Y342575D02*
Y343756D01*
X224000Y288244D02*
Y293756D01*
X229512Y288244D02*
Y289425D01*
X218488Y288244D02*
X229512D01*
X218488D02*
Y289425D01*
Y292575D02*
Y293756D01*
X229512D01*
Y292575D02*
Y293756D01*
D15*
X192843Y105606D02*
Y106984D01*
X194811Y106000D01*
X192843Y105016D02*
X194811Y106000D01*
X192843Y105016D02*
Y105606D01*
X194811Y104819D02*
Y107181D01*
X210662Y105016D02*
Y106394D01*
X208693Y106000D02*
X210662Y105016D01*
X208693Y106000D02*
X210662Y106984D01*
Y106394D02*
Y106984D01*
X208693Y104819D02*
Y107181D01*
X227496Y89819D02*
X228874D01*
X227496D02*
X228480Y91787D01*
X229465Y89819D01*
X228874D02*
X229465D01*
X227299Y91787D02*
X229661D01*
X210654Y173677D02*
X236032D01*
Y244543D01*
X210654D02*
X236032D01*
X212409Y173677D02*
Y244543D01*
X157291D02*
X158259D01*
X163410D02*
X164165D01*
X169315D02*
X170070D01*
X175221D02*
X175976D01*
X181126D02*
X181881D01*
X187032D02*
X187787D01*
X192938D02*
X193692D01*
X198843D02*
X199598D01*
X204749D02*
X205503D01*
X204749Y173677D02*
X205503D01*
X198843D02*
X199598D01*
X192938D02*
X193692D01*
X187032D02*
X187787D01*
X181126D02*
X181881D01*
X175221D02*
X175976D01*
X169315D02*
X170070D01*
X163410D02*
X164165D01*
X157291D02*
Y244543D01*
Y173677D02*
X158259D01*
X124669Y318500D02*
X133331D01*
X132150Y309445D02*
X133331D01*
Y327555D01*
X132150D02*
X133331D01*
X124669D02*
X125850D01*
X124669Y309445D02*
Y327555D01*
Y309445D02*
X125850D01*
X180236Y40500D02*
X209500D01*
Y42374D01*
X180236Y40500D02*
Y46000D01*
X209500Y51626D02*
Y53500D01*
X180236Y46000D02*
X181000D01*
Y40500D02*
Y46000D01*
Y48000D02*
Y53500D01*
X180236Y48000D02*
X181000D01*
X180236Y53500D02*
X209500D01*
X180236Y48000D02*
Y53500D01*
X193425Y45031D02*
Y48968D01*
Y47000D02*
X196181Y45425D01*
X193425Y47000D02*
X196181Y48968D01*
Y45425D02*
Y48968D01*
X193032Y47000D02*
X193425D01*
X196181D02*
X196968D01*
X173055Y42669D02*
Y43850D01*
X154945Y42669D02*
X173055D01*
X154945D02*
Y43850D01*
Y50150D02*
Y51331D01*
X173055D01*
Y50150D02*
Y51331D01*
X164000Y42669D02*
Y51331D01*
X95000Y28669D02*
Y37331D01*
X104055Y36150D02*
Y37331D01*
X85945D02*
X104055D01*
X85945Y36150D02*
Y37331D01*
Y28669D02*
Y29850D01*
Y28669D02*
X104055D01*
Y29850D01*
X108031Y107000D02*
X108819D01*
X111575D02*
X111969D01*
X108819Y105032D02*
Y108575D01*
Y105032D02*
X111575Y107000D01*
X108819Y108575D02*
X111575Y107000D01*
Y105032D02*
Y108968D01*
X124764Y100500D02*
Y106000D01*
X95500Y100500D02*
X124764D01*
X124000Y106000D02*
X124764D01*
X124000Y100500D02*
Y106000D01*
Y108000D02*
Y113500D01*
Y108000D02*
X124764D01*
X95500Y100500D02*
Y102374D01*
X124764Y108000D02*
Y113500D01*
X95500Y111626D02*
Y113500D01*
X124764D01*
X142181Y107000D02*
X142968D01*
X139032D02*
X139425D01*
X142181Y105425D02*
Y108968D01*
X139425Y107000D02*
X142181Y108968D01*
X139425Y107000D02*
X142181Y105425D01*
X139425Y105032D02*
Y108968D01*
X126236Y108000D02*
Y113500D01*
X155500D01*
X126236Y108000D02*
X127000D01*
Y113500D01*
Y100500D02*
Y106000D01*
X126236D02*
X127000D01*
X155500Y111626D02*
Y113500D01*
X126236Y100500D02*
Y106000D01*
X155500Y100500D02*
Y102374D01*
X126236Y100500D02*
X155500D01*
X216271Y234714D02*
X218895D01*
X220206Y233402D01*
X218895Y232090D01*
X216271D01*
X218239D01*
Y234714D01*
X216271Y230778D02*
X220206D01*
X216271Y228154D01*
X220206D01*
Y226842D02*
Y224219D01*
Y225530D01*
X216271D01*
X220206Y220283D02*
Y222907D01*
X216271D01*
Y220283D01*
X218239Y222907D02*
Y221595D01*
X216271Y218971D02*
X220206D01*
X216271Y216347D01*
X220206D01*
X216271Y215035D02*
X220206D01*
X216271Y212411D01*
X220206D01*
X216271Y211099D02*
X218895D01*
X220206Y209787D01*
X218895Y208475D01*
X216271D01*
X218239D01*
Y211099D01*
X153924Y172236D02*
X152612D01*
X153268D01*
Y168956D01*
X152612Y168300D01*
X151956D01*
X151300Y168956D01*
X155236Y172236D02*
X157860D01*
Y171580D01*
X155236Y168956D01*
Y168300D01*
X153924Y291236D02*
X152612D01*
X153268D01*
Y287956D01*
X152612Y287300D01*
X151956D01*
X151300Y287956D01*
X157860Y291236D02*
X156548Y290580D01*
X155236Y289268D01*
Y287956D01*
X155892Y287300D01*
X157204D01*
X157860Y287956D01*
Y288612D01*
X157204Y289268D01*
X155236D01*
X127968Y99280D02*
X124688D01*
X124032Y98624D01*
Y97312D01*
X124688Y96656D01*
X127968D01*
Y92720D02*
Y95344D01*
X126000D01*
X126656Y94032D01*
Y93376D01*
X126000Y92720D01*
X124688D01*
X124032Y93376D01*
Y94688D01*
X124688Y95344D01*
X138300Y331736D02*
Y328456D01*
X138956Y327800D01*
X140268D01*
X140924Y328456D01*
Y331736D01*
X144204Y327800D02*
Y331736D01*
X142236Y329768D01*
X144860D01*
X135968Y93752D02*
X132032D01*
Y95720D01*
X132688Y96376D01*
X134000D01*
X134656Y95720D01*
Y93752D01*
Y95064D02*
X135968Y96376D01*
Y100312D02*
Y97688D01*
X133344Y100312D01*
X132688D01*
X132032Y99656D01*
Y98344D01*
X132688Y97688D01*
Y101624D02*
X132032Y102280D01*
Y103592D01*
X132688Y104248D01*
X133344D01*
X134000Y103592D01*
Y102936D01*
Y103592D01*
X134656Y104248D01*
X135312D01*
X135968Y103592D01*
Y102280D01*
X135312Y101624D01*
X138752Y71532D02*
Y75468D01*
X140720D01*
X141376Y74812D01*
Y73500D01*
X140720Y72844D01*
X138752D01*
X140064D02*
X141376Y71532D01*
X145312D02*
X142688D01*
X145312Y74156D01*
Y74812D01*
X144656Y75468D01*
X143344D01*
X142688Y74812D01*
X149248Y71532D02*
X146624D01*
X149248Y74156D01*
Y74812D01*
X148592Y75468D01*
X147280D01*
X146624Y74812D01*
X100408Y72032D02*
Y75968D01*
X102376D01*
X103032Y75312D01*
Y74000D01*
X102376Y73344D01*
X100408D01*
X101720D02*
X103032Y72032D01*
X106968D02*
X104344D01*
X106968Y74656D01*
Y75312D01*
X106312Y75968D01*
X105000D01*
X104344Y75312D01*
X108280Y72032D02*
X109592D01*
X108936D01*
Y75968D01*
X108280Y75312D01*
X179080Y135032D02*
Y138968D01*
X181048D01*
X181704Y138312D01*
Y137000D01*
X181048Y136344D01*
X179080D01*
X180392D02*
X181704Y135032D01*
X183016D02*
X184328D01*
X183672D01*
Y138968D01*
X183016Y138312D01*
X186296D02*
X186952Y138968D01*
X188264D01*
X188920Y138312D01*
Y137656D01*
X188264Y137000D01*
X188920Y136344D01*
Y135688D01*
X188264Y135032D01*
X186952D01*
X186296Y135688D01*
Y136344D01*
X186952Y137000D01*
X186296Y137656D01*
Y138312D01*
X186952Y137000D02*
X188264D01*
X121968Y314580D02*
X118032D01*
Y316548D01*
X118688Y317204D01*
X120000D01*
X120656Y316548D01*
Y314580D01*
Y315892D02*
X121968Y317204D01*
Y318516D02*
Y319828D01*
Y319172D01*
X118032D01*
X118688Y318516D01*
X118032Y321796D02*
Y324420D01*
X118688D01*
X121312Y321796D01*
X121968D01*
X157032Y103080D02*
X160968D01*
Y105048D01*
X160312Y105704D01*
X157688D01*
X157032Y105048D01*
Y103080D01*
X160968Y107016D02*
Y108328D01*
Y107672D01*
X157032D01*
X157688Y107016D01*
Y110296D02*
X157032Y110952D01*
Y112264D01*
X157688Y112920D01*
X160312D01*
X160968Y112264D01*
Y110952D01*
X160312Y110296D01*
X157688D01*
X93094Y110280D02*
X89158D01*
Y108312D01*
X89814Y107656D01*
X92438D01*
X93094Y108312D01*
Y110280D01*
X89814Y106344D02*
X89158Y105688D01*
Y104376D01*
X89814Y103720D01*
X92438D01*
X93094Y104376D01*
Y105688D01*
X92438Y106344D01*
X91782D01*
X91126Y105688D01*
Y103720D01*
X126704Y62312D02*
X126048Y62968D01*
X124736D01*
X124080Y62312D01*
Y59688D01*
X124736Y59032D01*
X126048D01*
X126704Y59688D01*
X128016Y59032D02*
X129328D01*
X128672D01*
Y62968D01*
X128016Y62312D01*
X133920Y59032D02*
X131296D01*
X133920Y61656D01*
Y62312D01*
X133264Y62968D01*
X131952D01*
X131296Y62312D01*
X113324Y96580D02*
X112668Y97236D01*
X111356D01*
X110700Y96580D01*
Y93956D01*
X111356Y93300D01*
X112668D01*
X113324Y93956D01*
X114636Y93300D02*
X115948D01*
X115292D01*
Y97236D01*
X114636Y96580D01*
X117915Y93300D02*
X119227D01*
X118571D01*
Y97236D01*
X117915Y96580D01*
X162968Y28080D02*
X159032D01*
Y30048D01*
X159688Y30704D01*
X161000D01*
X161656Y30048D01*
Y28080D01*
Y29392D02*
X162968Y30704D01*
Y32016D02*
Y33328D01*
Y32672D01*
X159032D01*
X159688Y32016D01*
X159032Y37920D02*
X159688Y36608D01*
X161000Y35296D01*
X162312D01*
X162968Y35952D01*
Y37264D01*
X162312Y37920D01*
X161656D01*
X161000Y37264D01*
Y35296D01*
X125580Y18532D02*
Y22468D01*
X127548D01*
X128204Y21812D01*
Y20500D01*
X127548Y19844D01*
X125580D01*
X126892D02*
X128204Y18532D01*
X129516D02*
X130828D01*
X130172D01*
Y22468D01*
X129516Y21812D01*
X135420Y22468D02*
X132796D01*
Y20500D01*
X134108Y21156D01*
X134764D01*
X135420Y20500D01*
Y19188D01*
X134764Y18532D01*
X133452D01*
X132796Y19188D01*
X159080Y17532D02*
Y21468D01*
X161048D01*
X161704Y20812D01*
Y19500D01*
X161048Y18844D01*
X159080D01*
X160392D02*
X161704Y17532D01*
X163016D02*
X164328D01*
X163672D01*
Y21468D01*
X163016Y20812D01*
X168264Y17532D02*
Y21468D01*
X166296Y19500D01*
X168920D01*
X159080Y53032D02*
Y56968D01*
X161048D01*
X161704Y56312D01*
Y55000D01*
X161048Y54344D01*
X159080D01*
X160392D02*
X161704Y53032D01*
X163016D02*
X164328D01*
X163672D01*
Y56968D01*
X163016Y56312D01*
X166296D02*
X166952Y56968D01*
X168264D01*
X168920Y56312D01*
Y55656D01*
X168264Y55000D01*
X167608D01*
X168264D01*
X168920Y54344D01*
Y53688D01*
X168264Y53032D01*
X166952D01*
X166296Y53688D01*
X138720Y23968D02*
Y20032D01*
X140688D01*
X141344Y20688D01*
Y23312D01*
X140688Y23968D01*
X138720D01*
X142656Y23312D02*
X143312Y23968D01*
X144624D01*
X145280Y23312D01*
Y22656D01*
X144624Y22000D01*
X145280Y21344D01*
Y20688D01*
X144624Y20032D01*
X143312D01*
X142656Y20688D01*
Y21344D01*
X143312Y22000D01*
X142656Y22656D01*
Y23312D01*
X143312Y22000D02*
X144624D01*
X150720Y23968D02*
Y20032D01*
X152688D01*
X153344Y20688D01*
Y23312D01*
X152688Y23968D01*
X150720D01*
X154656D02*
X157280D01*
Y23312D01*
X154656Y20688D01*
Y20032D01*
X148704Y83312D02*
X148048Y83968D01*
X146736D01*
X146080Y83312D01*
Y80688D01*
X146736Y80032D01*
X148048D01*
X148704Y80688D01*
X150016Y80032D02*
X151328D01*
X150672D01*
Y83968D01*
X150016Y83312D01*
X153296D02*
X153952Y83968D01*
X155264D01*
X155920Y83312D01*
Y80688D01*
X155264Y80032D01*
X153952D01*
X153296Y80688D01*
Y83312D01*
X142344Y62312D02*
X141688Y62968D01*
X140376D01*
X139720Y62312D01*
Y59688D01*
X140376Y59032D01*
X141688D01*
X142344Y59688D01*
X143656D02*
X144312Y59032D01*
X145624D01*
X146280Y59688D01*
Y62312D01*
X145624Y62968D01*
X144312D01*
X143656Y62312D01*
Y61656D01*
X144312Y61000D01*
X146280D01*
X120600Y53780D02*
X123224Y51156D01*
X120600D02*
X123224Y53780D01*
X120600Y52468D02*
X123224D01*
X121912Y51156D02*
Y53780D01*
X97720Y12968D02*
Y9688D01*
X98376Y9032D01*
X99688D01*
X100344Y9688D01*
Y12968D01*
X101656Y12312D02*
X102312Y12968D01*
X103624D01*
X104280Y12312D01*
Y11656D01*
X103624Y11000D01*
X102968D01*
X103624D01*
X104280Y10344D01*
Y9688D01*
X103624Y9032D01*
X102312D01*
X101656Y9688D01*
X100500Y153436D02*
Y150156D01*
X101156Y149500D01*
X102468D01*
X103124Y150156D01*
Y153436D01*
X107060Y149500D02*
X104436D01*
X107060Y152124D01*
Y152780D01*
X106404Y153436D01*
X105092D01*
X104436Y152780D01*
X90080Y38032D02*
Y41968D01*
X92048D01*
X92704Y41312D01*
Y40000D01*
X92048Y39344D01*
X90080D01*
X91392D02*
X92704Y38032D01*
X94016D02*
X95328D01*
X94672D01*
Y41968D01*
X94016Y41312D01*
X99920Y38032D02*
X97296D01*
X99920Y40656D01*
Y41312D01*
X99264Y41968D01*
X97952D01*
X97296Y41312D01*
X85968Y3736D02*
X82032D01*
Y5704D01*
X82688Y6360D01*
X84000D01*
X84656Y5704D01*
Y3736D01*
Y5048D02*
X85968Y6360D01*
Y7672D02*
Y8984D01*
Y8328D01*
X82032D01*
X82688Y7672D01*
X85968Y10952D02*
Y12264D01*
Y11608D01*
X82032D01*
X82688Y10952D01*
X192080Y289032D02*
Y292968D01*
X194048D01*
X194704Y292312D01*
Y291000D01*
X194048Y290344D01*
X192080D01*
X193392D02*
X194704Y289032D01*
X196016D02*
X197328D01*
X196672D01*
Y292968D01*
X196016Y292312D01*
X199296D02*
X199952Y292968D01*
X201264D01*
X201920Y292312D01*
Y289688D01*
X201264Y289032D01*
X199952D01*
X199296Y289688D01*
Y292312D01*
X216201Y54032D02*
Y57968D01*
X218168D01*
X218824Y57312D01*
Y56000D01*
X218168Y55344D01*
X216201D01*
X217512D02*
X218824Y54032D01*
X220136Y54688D02*
X220792Y54032D01*
X222104D01*
X222760Y54688D01*
Y57312D01*
X222104Y57968D01*
X220792D01*
X220136Y57312D01*
Y56656D01*
X220792Y56000D01*
X222760D01*
X200500Y30688D02*
Y33312D01*
X199844Y33968D01*
X198532D01*
X197876Y33312D01*
Y30688D01*
X198532Y30032D01*
X199844D01*
X199188Y31344D02*
X200500Y30032D01*
X199844D02*
X200500Y30688D01*
X201812Y30032D02*
X203124D01*
X202468D01*
Y33968D01*
X201812Y33312D01*
X180600Y60736D02*
Y56800D01*
X182568D01*
X183224Y57456D01*
Y60080D01*
X182568Y60736D01*
X180600D01*
X187160D02*
X185848Y60080D01*
X184536Y58768D01*
Y57456D01*
X185192Y56800D01*
X186504D01*
X187160Y57456D01*
Y58112D01*
X186504Y58768D01*
X184536D01*
X226720Y58834D02*
Y54898D01*
X228688D01*
X229344Y55554D01*
Y58178D01*
X228688Y58834D01*
X226720D01*
X233280D02*
X230656D01*
Y56866D01*
X231968Y57522D01*
X232624D01*
X233280Y56866D01*
Y55554D01*
X232624Y54898D01*
X231312D01*
X230656Y55554D01*
X72688Y19002D02*
X72032Y18346D01*
Y17034D01*
X72688Y16378D01*
X75312D01*
X75968Y17034D01*
Y18346D01*
X75312Y19002D01*
X72688Y20313D02*
X72032Y20969D01*
Y22281D01*
X72688Y22937D01*
X73344D01*
X74000Y22281D01*
X74656Y22937D01*
X75312D01*
X75968Y22281D01*
Y20969D01*
X75312Y20313D01*
X74656D01*
X74000Y20969D01*
X73344Y20313D01*
X72688D01*
X74000Y20969D02*
Y22281D01*
X145844Y137812D02*
X145188Y138468D01*
X143876D01*
X143220Y137812D01*
Y135188D01*
X143876Y134532D01*
X145188D01*
X145844Y135188D01*
X147156Y138468D02*
X149780D01*
Y137812D01*
X147156Y135188D01*
Y134532D01*
X145344Y124312D02*
X144688Y124968D01*
X143376D01*
X142720Y124312D01*
Y121688D01*
X143376Y121032D01*
X144688D01*
X145344Y121688D01*
X149280Y124968D02*
X147968Y124312D01*
X146656Y123000D01*
Y121688D01*
X147312Y121032D01*
X148624D01*
X149280Y121688D01*
Y122344D01*
X148624Y123000D01*
X146656D01*
X192720Y135032D02*
Y138968D01*
X194688D01*
X195344Y138312D01*
Y137000D01*
X194688Y136344D01*
X192720D01*
X194032D02*
X195344Y135032D01*
X196656Y138312D02*
X197312Y138968D01*
X198624D01*
X199280Y138312D01*
Y137656D01*
X198624Y137000D01*
X199280Y136344D01*
Y135688D01*
X198624Y135032D01*
X197312D01*
X196656Y135688D01*
Y136344D01*
X197312Y137000D01*
X196656Y137656D01*
Y138312D01*
X197312Y137000D02*
X198624D01*
X178220Y324532D02*
Y328468D01*
X180188D01*
X180844Y327812D01*
Y326500D01*
X180188Y325844D01*
X178220D01*
X179532D02*
X180844Y324532D01*
X182156Y328468D02*
X184780D01*
Y327812D01*
X182156Y325188D01*
Y324532D01*
X187344Y269312D02*
X186688Y269968D01*
X185376D01*
X184720Y269312D01*
Y266688D01*
X185376Y266032D01*
X186688D01*
X187344Y266688D01*
X191280Y269968D02*
X188656D01*
Y268000D01*
X189968Y268656D01*
X190624D01*
X191280Y268000D01*
Y266688D01*
X190624Y266032D01*
X189312D01*
X188656Y266688D01*
X180824Y101968D02*
X179513D01*
X180168D01*
Y98688D01*
X179513Y98032D01*
X178857D01*
X178201Y98688D01*
X184760Y101968D02*
X182136D01*
Y100000D01*
X183448Y100656D01*
X184104D01*
X184760Y100000D01*
Y98688D01*
X184104Y98032D01*
X182792D01*
X182136Y98688D01*
X220161Y140032D02*
Y143968D01*
X222129D01*
X222785Y143312D01*
Y142000D01*
X222129Y141344D01*
X220161D01*
X221473D02*
X222785Y140032D01*
X226721Y143968D02*
X225409Y143312D01*
X224097Y142000D01*
Y140688D01*
X224753Y140032D01*
X226065D01*
X226721Y140688D01*
Y141344D01*
X226065Y142000D01*
X224097D01*
X215161Y147032D02*
Y150968D01*
X217129D01*
X217785Y150312D01*
Y149000D01*
X217129Y148344D01*
X215161D01*
X216473D02*
X217785Y147032D01*
X221721Y150968D02*
X219097D01*
Y149000D01*
X220409Y149656D01*
X221065D01*
X221721Y149000D01*
Y147688D01*
X221065Y147032D01*
X219753D01*
X219097Y147688D01*
X164424Y321736D02*
X163112D01*
X163768D01*
Y318456D01*
X163112Y317800D01*
X162456D01*
X161800Y318456D01*
X167704Y317800D02*
Y321736D01*
X165736Y319768D01*
X168360D01*
X12408Y356618D02*
Y352682D01*
X14376D01*
X15032Y353338D01*
Y353994D01*
X14376Y354650D01*
X12408D01*
X14376D01*
X15032Y355306D01*
Y355962D01*
X14376Y356618D01*
X12408D01*
X16344D02*
X18968D01*
X17656D01*
Y352682D01*
X20280D02*
X21592D01*
X20936D01*
Y356618D01*
X20280Y355962D01*
X157700Y256336D02*
Y253056D01*
X158356Y252400D01*
X159668D01*
X160324Y253056D01*
Y256336D01*
X161636Y252400D02*
X162948D01*
X162292D01*
Y256336D01*
X161636Y255680D01*
X216376Y315312D02*
X215720Y315968D01*
X214408D01*
X213752Y315312D01*
Y314656D01*
X214408Y314000D01*
X215720D01*
X216376Y313344D01*
Y312688D01*
X215720Y312032D01*
X214408D01*
X213752Y312688D01*
X217688Y315968D02*
Y312032D01*
X219000Y313344D01*
X220312Y312032D01*
Y315968D01*
X224248Y312032D02*
X221624D01*
X224248Y314656D01*
Y315312D01*
X223592Y315968D01*
X222280D01*
X221624Y315312D01*
X218032Y335312D02*
X217376Y335968D01*
X216064D01*
X215408Y335312D01*
Y334656D01*
X216064Y334000D01*
X217376D01*
X218032Y333344D01*
Y332688D01*
X217376Y332032D01*
X216064D01*
X215408Y332688D01*
X219344Y335968D02*
Y332032D01*
X220656Y333344D01*
X221968Y332032D01*
Y335968D01*
X223280Y332032D02*
X224592D01*
X223936D01*
Y335968D01*
X223280Y335312D01*
X140032Y198398D02*
X143968D01*
Y196430D01*
X143312Y195774D01*
X142000D01*
X141344Y196430D01*
Y198398D01*
Y197086D02*
X140032Y195774D01*
Y192494D02*
X143968D01*
X142000Y194462D01*
Y191838D01*
X204513Y67280D02*
X208448D01*
Y65312D01*
X207792Y64656D01*
X206480D01*
X205824Y65312D01*
Y67280D01*
Y65968D02*
X204513Y64656D01*
X207792Y63344D02*
X208448Y62688D01*
Y61376D01*
X207792Y60720D01*
X207136D01*
X206480Y61376D01*
Y62032D01*
Y61376D01*
X205824Y60720D01*
X205169D01*
X204513Y61376D01*
Y62688D01*
X205169Y63344D01*
X196512Y67280D02*
X200448D01*
Y65312D01*
X199792Y64656D01*
X198480D01*
X197825Y65312D01*
Y67280D01*
Y65968D02*
X196512Y64656D01*
Y60720D02*
Y63344D01*
X199136Y60720D01*
X199792D01*
X200448Y61376D01*
Y62688D01*
X199792Y63344D01*
X191876Y258032D02*
Y261968D01*
X193844D01*
X194500Y261312D01*
Y260000D01*
X193844Y259344D01*
X191876D01*
X193188D02*
X194500Y258032D01*
X195812D02*
X197124D01*
X196468D01*
Y261968D01*
X195812Y261312D01*
X144924Y251236D02*
X143612D01*
X144268D01*
Y247956D01*
X143612Y247300D01*
X142956D01*
X142300Y247956D01*
X148860Y247300D02*
X146236D01*
X148860Y249924D01*
Y250580D01*
X148204Y251236D01*
X146892D01*
X146236Y250580D01*
X134032Y216785D02*
X137312D01*
X137968Y217440D01*
Y218752D01*
X137312Y219408D01*
X134032D01*
X137968Y220720D02*
X135344D01*
X134032Y222032D01*
X135344Y223344D01*
X137968D01*
X136000D01*
Y220720D01*
X137968Y224656D02*
X134032D01*
Y226624D01*
X134688Y227280D01*
X136000D01*
X136656Y226624D01*
Y224656D01*
Y225968D02*
X137968Y227280D01*
X134032Y228592D02*
Y231216D01*
Y229904D01*
X137968D01*
X142968Y182280D02*
X139032D01*
Y180312D01*
X139688Y179656D01*
X142312D01*
X142968Y180312D01*
Y182280D01*
X139032Y176376D02*
X142968D01*
X141000Y178344D01*
Y175720D01*
X178744Y107968D02*
Y104032D01*
X180712D01*
X181368Y104688D01*
Y107312D01*
X180712Y107968D01*
X178744D01*
X182680Y107312D02*
X183336Y107968D01*
X184648D01*
X185303Y107312D01*
Y106656D01*
X184648Y106000D01*
X183992D01*
X184648D01*
X185303Y105344D01*
Y104688D01*
X184648Y104032D01*
X183336D01*
X182680Y104688D01*
X218744Y107968D02*
Y104032D01*
X220712D01*
X221368Y104688D01*
Y107312D01*
X220712Y107968D01*
X218744D01*
X225304Y104032D02*
X222680D01*
X225304Y106656D01*
Y107312D01*
X224647Y107968D01*
X223336D01*
X222680Y107312D01*
X230448Y82624D02*
X226513D01*
Y80656D01*
X227168Y80000D01*
X229792D01*
X230448Y80656D01*
Y82624D01*
X226513Y78688D02*
Y77376D01*
Y78032D01*
X230448D01*
X229792Y78688D01*
X231031Y290344D02*
X230375Y289688D01*
Y288376D01*
X231031Y287720D01*
X233654D01*
X234310Y288376D01*
Y289688D01*
X233654Y290344D01*
X234310Y293624D02*
X230375D01*
X232343Y291656D01*
Y294280D01*
X229344Y342312D02*
X228688Y342968D01*
X227376D01*
X226720Y342312D01*
Y339688D01*
X227376Y339032D01*
X228688D01*
X229344Y339688D01*
X230656Y342312D02*
X231312Y342968D01*
X232624D01*
X233280Y342312D01*
Y341656D01*
X232624Y341000D01*
X231968D01*
X232624D01*
X233280Y340344D01*
Y339688D01*
X232624Y339032D01*
X231312D01*
X230656Y339688D01*
X224529Y264812D02*
X223873Y265468D01*
X222561D01*
X221905Y264812D01*
Y262188D01*
X222561Y261532D01*
X223873D01*
X224529Y262188D01*
X228465Y261532D02*
X225841D01*
X228465Y264156D01*
Y264812D01*
X227809Y265468D01*
X226497D01*
X225841Y264812D01*
X224843Y256812D02*
X224187Y257468D01*
X222875D01*
X222219Y256812D01*
Y254188D01*
X222875Y253532D01*
X224187D01*
X224843Y254188D01*
X226154Y253532D02*
X227466D01*
X226810D01*
Y257468D01*
X226154Y256812D01*
D16*
X110502Y119609D02*
Y146391D01*
X121498D01*
Y119609D02*
Y146391D01*
X110502Y119609D02*
X121498D01*
X183991Y29141D02*
Y34859D01*
Y29141D02*
X188053D01*
X196009D02*
Y34859D01*
X191947Y29141D02*
X196009D01*
X188207Y34859D02*
X191793D01*
D17*
X200717Y104573D02*
D03*
X202787Y107425D02*
D03*
D18*
X200673Y107500D02*
D03*
X202831Y104500D02*
D03*
D19*
X229908Y97692D02*
D03*
D20*
X226980Y97650D02*
D03*
M02*
