G04*
G04 #@! TF.GenerationSoftware,Altium Limited,Altium Designer,22.2.1 (43)*
G04*
G04 Layer_Color=16711935*
%FSLAX25Y25*%
%MOIN*%
G70*
G04*
G04 #@! TF.SameCoordinates,7FF29AC8-F327-4267-8616-DCF866A2A884*
G04*
G04*
G04 #@! TF.FilePolarity,Negative*
G04*
G01*
G75*
%ADD63C,0.06699*%
%ADD64R,0.07093X0.07093*%
%ADD65C,0.07093*%
%ADD66R,0.02835X0.02835*%
%ADD67O,0.08268X0.03937*%
%ADD68C,0.10039*%
%ADD69R,0.07487X0.07487*%
%ADD70C,0.07487*%
%ADD71C,0.05912*%
%ADD72R,0.06306X0.05912*%
%ADD73R,0.07093X0.07093*%
D63*
X183063Y11000D02*
D03*
X190937D02*
D03*
D64*
X128000Y368000D02*
D03*
X197000Y127000D02*
D03*
X166500Y309500D02*
D03*
D65*
X138000Y368000D02*
D03*
X148000D02*
D03*
X158000D02*
D03*
X227000Y127000D02*
D03*
X217000D02*
D03*
X207000D02*
D03*
X147000Y229000D02*
D03*
Y219000D02*
D03*
Y209000D02*
D03*
X176500Y309500D02*
D03*
X186500D02*
D03*
X196500D02*
D03*
D66*
X217480Y94000D02*
D03*
X213739D02*
D03*
X210000D02*
D03*
X206456D02*
D03*
X202913D02*
D03*
X199369D02*
D03*
X195629D02*
D03*
X191889D02*
D03*
Y88488D02*
D03*
X195629D02*
D03*
X199369D02*
D03*
X202913D02*
D03*
X206456D02*
D03*
X210000D02*
D03*
X213739D02*
D03*
X217480D02*
D03*
D67*
X196810Y98843D02*
D03*
X212559D02*
D03*
X196810Y83646D02*
D03*
X212559D02*
D03*
D68*
X76496Y334752D02*
D03*
D69*
X226000Y279000D02*
D03*
Y160000D02*
D03*
D70*
X216000Y279000D02*
D03*
X206000D02*
D03*
X196000D02*
D03*
X186000D02*
D03*
X176000D02*
D03*
X166000D02*
D03*
X156000D02*
D03*
X216000Y160000D02*
D03*
X206000D02*
D03*
X196000D02*
D03*
X186000D02*
D03*
X176000D02*
D03*
X166000D02*
D03*
X156000D02*
D03*
D71*
X12126Y48000D02*
D03*
D72*
X20000D02*
D03*
D73*
X147000Y239000D02*
D03*
M02*
